<?xml version="1.0" encoding="utf-8"?>
<!-- Generator: Adobe Illustrator 19.0.0, SVG Export Plug-In . SVG Version: 6.00 Build 0)  -->
<svg version="1.1" id="Layer_1" xmlns="http://www.w3.org/2000/svg" xmlns:xlink="http://www.w3.org/1999/xlink" x="0px" y="0px"
	 viewBox="-373 277 44 59" style="enable-background:new -373 277 44 59;" xml:space="preserve">
<style type="text/css">
	.st0{fill:#FF6C00;}
</style>
<path id="path-1" class="st0" d="M-368.7,331.4v-48h6.7v-2h3.2v2h15.5v-2h3.2v2h6.7v48H-368.7z M-335.1,285.3h-4.9v2.6h-3.2v-2.6
	h-15.5v2.6h-3.2v-2.6h-4.9v44.3h31.7V285.3z M-338.3,314.1h-24.3v-1.9h24.3V314.1z M-340.2,317.9h-22.4V316h22.4V317.9z M-342,321.5
	h-20.6v-1.9h20.6V321.5z M-343.8,325.1h-18.8v-1.9h18.8V325.1z M-343.7,307.6c-2.7,1.2-7,1.4-7,1.4c-0.1,0-0.2,0-0.3,0l0,0
	c0,0,0,0,0,0c0,0,0,0,0,0l0,0c-0.1,0-0.2,0-0.3,0c0,0-4.3-0.2-7-1.4c0,0-0.4-0.1-0.4-1c0,0,0.1-3.9,1.3-5.7c0,0,0.3-0.5,1.1-0.8
	c0,0,2.7-0.8,2.9-1.6c0,0,0.9,2.4,2.3,2.3c1.4,0,2.3-2.3,2.3-2.3c0.2,0.7,2.9,1.6,2.9,1.6c0.8,0.3,1.1,0.8,1.1,0.8
	c1.2,1.8,1.3,5.7,1.3,5.7C-343.3,307.5-343.7,307.6-343.7,307.6z M-347.6,295.2c0,0.3-0.2,0.5-0.3,0.5c-0.2,1.6-1.7,3.5-3.2,3.5
	c-1.3,0-2.8-1.8-3-3.5c-0.1-0.1-0.2-0.2-0.3-0.5c0,0-0.3-1.3,0.2-1c-0.4-1.9-0.1-2.6-0.1-2.6c0.5-1.4,2.1-2.1,2.1-2.1s0.3-0.2,0.5,0
	l0.1,0.1c0.1-0.3,0.4-0.6,0.5-0.6c0,0-0.1,0.1,0,0.2c0.1-0.2,0.4-0.3,0.4-0.3c0,0.4,0.4,0.7,0.6,0.9c0-0.1-0.1-0.2-0.1-0.2
	c0.1,0.1,0.1,0.2,0.2,0.2c0,0,0.1,0,0.1,0c-0.1-0.1-0.1-0.2-0.1-0.2c0.1,0.1,0.1,0.1,0.2,0.2c0.1,0,0.1,0,0.2,0c0,0-0.1-0.1-0.1-0.1
	c0,0,0.1,0.1,0.1,0.1c1.1,0.3,1.5,1,1.5,1c1,1.1,0.5,2.8,0.3,3.3C-347.3,294-347.6,295.2-347.6,295.2z"/>
</svg>
