<svg version="1" xmlns="http://www.w3.org/2000/svg" width="744" height="744" viewBox="0 0 558.000000 558.000000"><path d="M.1 179.2v179.3l4.5-8.5c15-28.5 43.2-56.4 84.6-83.6l13.8-9L91.8 247c-19.5-17.8-38.3-39.9-42.5-50-.8-1.9-2.1-4.2-2.7-5-2.2-2.6-6.3-14.3-7.6-21.6-1.7-9.8-.8-29.6 1.9-39.7 5.3-20 20.7-42.8 39.9-59 22.6-19 46.1-30.1 72.6-34.4 15.1-2.3 41.8-1.4 54.7 2 16.5 4.3 28.5 11.3 41.1 23.8 8.8 8.8 10.2 10.7 15.2 21.1 6.4 13.2 8.4 20.5 9.2 34.3 1.9 31.2-14.7 63.8-49.2 96.2-12.6 11.8-14.1 13-32.6 27-6.5 4.8-11.8 9.1-11.8 9.5 0 .4 2.1 2.4 4.8 4.5 30.7 24.6 56.6 51.6 68.4 71.3 11.9 19.8 13.3 24.7 13.2 46-.1 14.5-.4 17.7-2.7 26.5-8.1 30.6-32.5 63.2-65.5 87.6-13.7 10.2-21 14.6-31.6 19.1-5 2.2-10 4.4-11.1 4.9-21.9 10.1-64.9 11.9-90.4 3.8-24.2-7.7-48.5-26.8-61.5-48.5L0 460.5V558h558V339.5l-3.9 11.5c-4 11.8-14.8 35-22.1 47.5-19.4 33.1-48.3 66.5-75.9 87.6-18.8 14.5-42 25.9-62.3 30.7-10.3 2.4-13.2 2.6-31.3 2.6-19.1.1-20.4-.1-28.1-2.7-9.4-3.1-23.8-11.8-30.8-18.5-5.4-5.3-14.8-17.4-18.7-24.2-5.4-9.3-11.2-24.8-13.7-36.5-2.5-11.2-2.6-13.7-2.6-38.5-.1-38.1 2-51.1 14.1-89.5 8.6-27.1 28.8-63.3 50.9-91 12.3-15.4 34.8-37.6 47.9-47.3 19.4-14.4 41.9-25.1 63.5-30.3 12.4-2.9 37.7-3.7 49-1.5 24.2 4.8 47.6 24 60 49.1l4 8V0H0l.1 179.2z"/><path d="M128.3 63.4c-26.3 5-43.1 18.3-50.1 39.5-3.6 10.8-3.7 26.6-.3 36.6 4.7 13.8 11.4 24.8 24.7 40.5 12.6 15 40.3 40.9 58.2 54.4l6.2 4.8 6.8-4.3c22.7-14.3 40.3-37.3 46.2-60.5 4.8-18.8 4.8-42.2-.1-58.1-6.1-19.7-24.1-39.8-42.2-47-14.8-5.8-36.1-8.4-49.4-5.9zM409.3 178.9c-13.1 3.6-24.9 11-37 23.3-18.1 18.5-31.7 43.5-41.7 76.8-4.9 16.3-7.2 31.3-8.6 55.6-1.6 27 1.4 61.6 6.6 75.7.8 2.3 2.3 6.4 3.3 9.2 6 16.6 13.9 29.3 24.6 40 9.3 9.3 16.7 14.1 27.2 17.8 11.4 3.9 29.7 4.9 41.5 2.3 32.3-7.2 62.3-42.5 78.6-92.6 8.7-26.7 11.6-47.3 11.6-81.5 0-32-2.4-46.7-11.6-69.8-10.9-27.6-30.3-48.4-51.8-55.5-10.5-3.5-32-4.1-42.7-1.3zM107.4 272.6c-29 22.7-52.8 50.3-61.4 71.1-5.7 13.7-7.3 21.5-7.4 35.8 0 20.1 4.3 34.9 14.9 51.1 16.9 25.8 43.8 43.8 72.9 48.9 18 3.1 37.3 1.6 51.4-3.9 17.5-6.9 38-28.4 43.2-45.3 9.5-30.9.4-55.2-36-96.8-14.2-16.2-36.4-37.1-64.6-61.2l-6-5.2-7 5.5z"/></svg>