<?xml version="1.0" standalone="no"?>
<!DOCTYPE svg PUBLIC "-//W3C//DTD SVG 1.1//EN" "http://www.w3.org/Graphics/SVG/1.1/DTD/svg11.dtd" >
<svg xmlns="http://www.w3.org/2000/svg">
<metadata>Generated by IcoMoon</metadata>
<defs>
<font id="icomoon" horiz-adv-x="1024">
<font-face units-per-em="1024" ascent="960" descent="-64" />
<missing-glyph horiz-adv-x="1024" />
<glyph unicode="&#x20;" horiz-adv-x="512" d="" />
<glyph unicode="&#xe600;" glyph-name="coding" d="M809.891-15.127h-605.091c-100.073 0-181.527 79.127-181.527 176.873v586.473c0 97.745 81.455 176.873 181.527 176.873h605.091c100.073 0 181.527-79.127 181.527-176.873v-586.473c0-97.745-81.455-176.873-181.527-176.873zM870.4 748.218c0 32.582-27.927 58.182-60.509 58.182h-605.091c-32.582 0-60.509-25.6-60.509-58.182v-586.473c0-32.582 27.927-58.182 60.509-58.182h605.091c32.582 0 60.509 25.6 60.509 58.182v586.473zM749.382 396.8v-58.182c0-97.745-81.455-176.873-181.527-176.873v116.364c32.582 0 60.509 25.6 60.509 58.182v58.182c32.582 0 60.509 25.6 60.509 58.182s-27.927 58.182-60.509 58.182v58.182c0 32.582-27.927 58.182-60.509 58.182v116.364c100.073 0 181.527-79.127 181.527-176.873v-58.182c32.582 0 60.509-25.6 60.509-58.182 0-27.927-27.927-53.527-60.509-53.527zM265.309 338.618v58.182c-32.582 0-60.509 25.6-60.509 58.182s27.927 58.182 60.509 58.182v58.182c0 97.745 81.455 176.873 181.527 176.873v-116.364c-32.582 0-60.509-25.6-60.509-58.182v-58.182c-32.582 0-60.509-25.6-60.509-58.182s27.927-58.182 60.509-58.182v-58.182c0-32.582 27.927-58.182 60.509-58.182v-116.364c-100.073-4.655-181.527 74.473-181.527 172.218z" />
<glyph unicode="&#xe601;" glyph-name="happy" d="M509.774-37.287c-269.357 0-487.513 218.157-487.513 487.513s218.157 487.513 487.513 487.513c269.357 0 487.513-218.157 487.513-487.513s-218.157-487.513-487.513-487.513zM507.548 815.304c-200.348 0-360.626-164.73-360.626-365.078 0-202.574 162.504-365.078 360.626-365.078 200.348 0 360.626 164.73 360.626 365.078 0 202.574-162.504 365.078-360.626 365.078zM512 209.809c-133.565 0-242.643 109.078-242.643 242.643 0 0 0 2.226 0 2.226h84.591c0 0 0-2.226 0-2.226 0-86.817 71.235-158.052 158.052-158.052s158.052 71.235 158.052 158.052c0 0 0 2.226 0 2.226h84.591c0 0 0-2.226 0-2.226 0-133.565-109.078-242.643-242.643-242.643zM623.304 559.304c-37.843 0-66.783 31.165-66.783 66.783 0 37.843 28.939 66.783 66.783 66.783s66.783-31.165 66.783-66.783c2.226-35.617-28.939-66.783-66.783-66.783zM396.243 559.304c-37.843 0-66.783 31.165-66.783 66.783 0 37.843 28.939 66.783 66.783 66.783s66.783-31.165 66.783-66.783c0-35.617-28.939-66.783-66.783-66.783z" />
<glyph unicode="&#xe602;" glyph-name="graphic-design" d="M204.8 15.837v833.085h116.285v34.712h55.539v-34.712h269.017v34.712h55.539v-34.712h116.285v-833.085h-612.664zM787.959 815.946h-85.044v-45.125h-55.539v45.125h-269.017v-45.125h-55.539v45.125h-85.044v-768.868h550.183v768.868zM732.42 316.095h-421.749v32.976h421.749v-32.976zM699.444 250.142h-388.773v32.976h388.773v-32.976zM668.203 187.661h-357.532v32.976h357.532v-32.976zM636.963 125.18h-326.292v32.976h326.292v-32.976zM638.698 428.908c-46.861-20.827-121.492-24.298-121.492-24.298-1.736 0-3.471 0-5.207 0v0c0 0 0 0 0 0s0 0 0 0v0c-1.736 0-3.471 0-5.207 0 0 0-74.631 3.471-121.492 24.298 0 0-6.942 1.736-6.942 17.356 0 0 1.736 67.688 22.563 98.929 0 0 5.207 8.678 19.092 13.885 0 0 46.861 13.885 50.332 27.769 0 0 15.62-41.654 39.919-39.919 24.298 0 39.919 39.919 39.919 39.919 3.471-12.149 50.332-27.769 50.332-27.769 13.885-5.207 19.092-13.885 19.092-13.885 20.827-31.241 22.563-98.929 22.563-98.929 3.471-15.62-3.471-17.356-3.471-17.356zM571.010 644.122c0-5.207-3.471-8.678-5.207-8.678-3.471-27.769-29.505-60.746-55.539-60.746-22.563 0-48.597 31.241-52.068 60.746-1.736 1.736-3.471 3.471-5.207 8.678 0 0-5.207 22.563 3.471 17.356-6.942 32.976-1.736 45.125-1.736 45.125 8.678 24.298 36.447 36.447 36.447 36.447s5.207 3.471 8.678 0l1.736-1.736c1.736 5.207 6.942 10.414 8.678 10.414 0 0-1.736-1.736 0-3.471 1.736 3.471 6.942 5.207 6.942 5.207 0-6.942 6.942-12.149 10.414-15.62 0 1.736-1.736 3.471-1.736 3.471 1.736-1.736 1.736-3.471 3.471-3.471 0 0 1.736 0 1.736 0-1.736 1.736-1.736 3.471-1.736 3.471 1.736-1.736 1.736-1.736 3.471-3.471 1.736 0 1.736 0 3.471 0 0 0-1.736 1.736-1.736 1.736s1.736-1.736 1.736-1.736c19.092-5.207 26.034-17.356 26.034-17.356 17.356-19.092 8.678-48.597 5.207-57.275 8.678 1.736 3.471-19.092 3.471-19.092z" />
<glyph unicode="&#xe603;" glyph-name="efficient" d="M838.809 386.996c-17.43-100.221-71.898-187.37-148.153-246.196v-71.898c0-69.719-54.468-126.366-124.187-126.366h-185.191c-67.54 0-124.187 56.647-124.187 126.366v71.898c-93.685 69.719-154.689 180.834-154.689 309.379 0 126.366 61.004 239.66 154.689 309.379v71.898c0 69.719 54.468 126.366 124.187 126.366h185.191c67.54 0 124.187-56.647 124.187-126.366v-71.898c76.255-56.647 130.723-143.796 148.153-246.196h69.719v-126.366h-69.719zM474.962 768.272c-169.94 0-307.2-141.617-307.2-318.094s137.26-318.094 307.2-318.094 307.2 141.617 307.2 318.094c0 176.477-137.26 318.094-307.2 318.094zM546.86 434.928c58.826-63.183 137.26-152.511 137.26-152.511s-93.685 61.004-165.583 106.757c15.251 10.894 26.145 28.323 28.323 45.753zM472.783 386.996c-21.787 0-39.217 10.894-50.111 28.323-2.179 2.179-2.179 4.357-4.357 4.357-2.179 2.179-2.179 6.536-4.357 8.715-2.179 6.536-4.357 13.072-4.357 21.787 0 34.86 28.323 63.183 61.004 63.183 6.536 0 13.072-2.179 19.609-4.357s10.894-4.357 15.251-8.715v0 0c15.251-10.894 26.145-30.502 26.145-52.289 2.179-32.681-26.145-61.004-58.826-61.004zM448.817 541.685c8.715 84.97 21.787 196.085 21.787 196.085s15.251-111.115 26.145-196.085c-8.715 4.357-17.43 6.536-26.145 6.536-6.536-2.179-13.072-4.357-21.787-6.536z" />
<glyph unicode="&#xe604;" glyph-name="photoshop-magic" d="M949.333 883.2c-19.2 0-34.133 14.933-34.133 34.133s14.933 34.133 34.133 34.133c19.2 0 34.133-14.933 34.133-34.133-2.133-19.2-17.067-34.133-34.133-34.133zM878.933-14.933c0 0 0 0 0 0 2.133 0 2.133 0 0 0v0zM795.733-4.267l-381.867 366.933c-25.6 25.6-27.733 66.133-2.133 91.733l4.267 4.267c25.6 25.6 64 23.467 91.733-2.133l366.933-384c25.6-25.6 34.133-59.733 8.533-85.333-29.867-27.733-61.867-17.067-87.467 8.533zM817.067 682.667c-19.2 0-34.133 14.933-34.133 34.133s14.933 34.133 34.133 34.133 34.133-14.933 34.133-34.133c-2.133-19.2-17.067-34.133-34.133-34.133zM750.933 550.4c-19.2 0-34.133 14.933-34.133 34.133s14.933 34.133 34.133 34.133 34.133-14.933 34.133-34.133c-2.133-19.2-17.067-34.133-34.133-34.133zM684.8 817.067c-19.2 0-34.133 14.933-34.133 34.133s14.933 34.133 34.133 34.133c19.2 0 34.133-14.933 34.133-34.133-2.133-19.2-17.067-34.133-34.133-34.133zM552.533 682.667c-19.2 0-34.133 14.933-34.133 34.133s14.933 34.133 34.133 34.133 34.133-14.933 34.133-34.133c-2.133-19.2-17.067-34.133-34.133-34.133zM484.267 883.2c-19.2 0-34.133 14.933-34.133 34.133s14.933 34.133 34.133 34.133 34.133-14.933 34.133-34.133c0-19.2-14.933-34.133-34.133-34.133zM354.133 650.667v0l196.267-100.267-206.933-17.067v-2.133h-2.133l-21.333-215.467-102.4 206.933h-2.133l-183.467-14.933 128 130.133v2.133l-72.533 147.2 145.067-74.667h2.133l138.667 140.8-19.2-202.667zM87.467 283.733c19.2 0 34.133-14.933 34.133-34.133s-14.933-34.133-34.133-34.133-34.133 14.933-34.133 34.133c2.133 19.2 17.067 34.133 34.133 34.133zM87.467 19.2c19.2 0 34.133-14.933 34.133-34.133s-14.933-34.133-34.133-34.133-34.133 14.933-34.133 34.133c2.133 19.2 17.067 34.133 34.133 34.133zM153.6 349.867c-19.2 0-34.133 14.933-34.133 34.133s14.933 34.133 34.133 34.133 34.133-14.933 34.133-34.133c0-19.2-14.933-34.133-34.133-34.133zM153.6 151.467c19.2 0 34.133-14.933 34.133-34.133s-14.933-34.133-34.133-34.133-34.133 14.933-34.133 34.133c2.133 19.2 17.067 34.133 34.133 34.133zM285.867 217.6c19.2 0 34.133-14.933 34.133-34.133s-14.933-34.133-34.133-34.133-34.133 14.933-34.133 34.133c2.133 19.2 17.067 34.133 34.133 34.133zM285.867 19.2c19.2 0 34.133-14.933 34.133-34.133s-14.933-34.133-34.133-34.133-34.133 14.933-34.133 34.133c2.133 19.2 17.067 34.133 34.133 34.133z" />
<glyph unicode="&#xe605;" glyph-name="perfection" d="M936.533 413.867h-89.6v-89.6c0-25.6-19.2-44.8-44.8-44.8s-44.8 19.2-44.8 44.8v89.6h-89.6c-25.6 0-44.8 19.2-44.8 44.8s19.2 44.8 44.8 44.8h89.6v89.6c0 25.6 19.2 44.8 44.8 44.8s44.8-19.2 44.8-44.8v-89.6h89.6c25.6 0 44.8-19.2 44.8-44.8s-19.2-44.8-44.8-44.8zM625.067 128c0-25.6-19.2-44.8-44.8-44.8-19.2 0-34.133 12.8-40.533 27.733v0l-57.6 151.467h-307.2l-57.6-151.467c-6.4-17.067-23.467-27.733-40.533-27.733-25.6 0-44.8 19.2-44.8 44.8 0 6.4 2.133 10.667 2.133 17.067v0l253.867 659.2c6.4 17.067 23.467 27.733 40.533 27.733s34.133-12.8 40.533-27.733v0l253.867-659.2c0-4.267 2.133-10.667 2.133-17.067zM328.533 661.333l-119.467-309.333h236.8l-117.333 309.333z" />
<glyph unicode="&#xe606;" glyph-name="market" d="M925.393 190.104h-358.4v-58.785h180.148v-58.785h-479.763v58.785h180.148v58.785h-358.4c-32.237 0-60.681 26.548-60.681 58.785v536.652c0 32.237 26.548 58.785 60.681 58.785h836.267c32.237 0 60.681-26.548 60.681-58.785v-536.652c-1.896-32.237-28.444-58.785-60.681-58.785zM925.393 785.541h-836.267v-536.652h836.267v536.652zM506.311 430.933l182.044 202.904-92.919 92.919h269.274v-269.274l-92.919 92.919-267.378-244.622-178.252 94.815-208.593-121.363 208.593 208.593 180.148-56.889z" />
<glyph unicode="&#xe607;" glyph-name="advertising" d="M972.8 404.992v-20.48h-389.12v-387.072h55.296v-61.44h-256v61.44h55.296v385.024h-389.12v20.48h-28.672v557.056h980.992v-555.008h-28.672zM970.752 927.232h-917.504v-473.088h86.016v16.384c-14.336 6.144-26.624 22.528-26.624 40.96 0 24.576 18.432 45.056 40.96 45.056s40.96-20.48 40.96-45.056c0-18.432-10.24-34.816-26.624-40.96v-16.384h325.632v14.336c-14.336 6.144-26.624 22.528-26.624 40.96 0 0 0 0 0 0 0 24.576 18.432 43.008 40.96 43.008s40.96-20.48 40.96-43.008c0 0 0 0 0 0 0-18.432-10.24-34.816-26.624-40.96v-14.336h315.392v14.336c-14.336 6.144-26.624 22.528-26.624 40.96 0 24.576 18.432 45.056 40.96 45.056s40.96-20.48 40.96-45.056c0-18.432-10.24-34.816-26.624-40.96v-14.336h98.304v473.088zM514.048 620.032c-8.192-12.288-16.384-20.48-24.576-26.624-10.24-6.144-20.48-8.192-34.816-8.192-22.528 0-40.96 10.24-57.344 28.672s-22.528 45.056-22.528 73.728c0 34.816 8.192 63.488 22.528 81.92 14.336 20.48 34.816 30.72 61.44 30.72 12.288 0 22.528-2.048 30.72-8.192s16.384-12.288 22.528-22.528v0 98.304h51.2v-276.48h-49.152v28.672zM495.616 744.96c-8.192 6.144-16.384 10.24-26.624 10.24-14.336 0-26.624-6.144-32.768-18.432s-10.24-26.624-10.24-45.056c0-18.432 4.096-34.816 10.24-45.056 6.144-12.288 18.432-16.384 32.768-16.384s24.576 6.144 32.768 16.384 10.24 26.624 10.24 43.008c0 26.624-4.096 45.056-16.384 55.296zM280.576 648.704h-96.256l-18.432-57.344h-57.344l94.208 276.48h61.44l92.16-276.48h-59.392l-16.384 57.344zM233.472 806.4l-34.816-108.544h67.584l-32.768 108.544z" />
<glyph unicode="&#xe608;" glyph-name="best" d="M973.938 509.44v-6.827c0-22.756-9.102-45.511-25.031-63.716 11.378-20.48 15.929-45.511 11.378-70.542-6.827-38.684-22.756-65.991-38.684-81.92 6.827-18.204 11.378-45.511 0-81.92-6.827-20.48-15.929-54.613-47.787-77.369 4.551-20.48 4.551-38.684 0-52.338-4.551-18.204-11.378-31.858-13.653-31.858-20.48-38.684-56.889-56.889-106.951-56.889h-161.564c-81.92 0-161.564 15.929-177.493 20.48-70.542 15.929-102.4 25.031-120.604 27.307 0 0 0 0-2.276 0s-4.551 2.276-6.827 2.276c0 0 0 0-2.276 0-13.653-29.582-43.236-50.062-79.644-50.062h-88.747c-50.062 0-88.747 40.96-88.747 88.747v473.316c0 50.062 40.96 88.747 88.747 88.747h88.747c22.756 0 43.236-11.378 59.164-22.756l-2.276 2.276c2.276 2.276 25.031 11.378 31.858 15.929 100.124 52.338 118.329 154.738 118.329 213.902 0 47.787 40.96 88.747 88.747 88.747 68.267 0 145.636-93.298 145.636-200.249 0-45.511-2.276-70.542-6.827-97.849 127.431-2.276 213.902-2.276 252.587-13.653 59.164-15.929 84.196-63.716 84.196-102.4 2.276-4.551 2.276-6.827 0-11.378zM234.382 552.676c0 15.929-13.653 29.582-29.582 29.582h-88.747c-15.929 0-29.582-13.653-29.582-29.582v-473.316c0-15.929 13.653-29.582 29.582-29.582h88.747c15.929 0 29.582 13.653 29.582 29.582v473.316zM880.64 570.88c-27.307 6.827-25.031 11.378-320.853 11.378 25.031 72.818 27.307 86.471 27.307 154.738 0 77.369-54.613 141.084-86.471 141.084-18.204 0-29.582-15.929-29.582-29.582-2.276-100.124-43.236-223.004-177.493-279.893-2.276 0-4.551-2.276-6.827-2.276-13.653-4.551-22.756-15.929-22.756-31.858v-409.6c0-22.756 25.031-25.031 25.031-25.031 6.827-2.276 13.653-4.551 136.533-31.858 2.276 0 81.92-18.204 163.84-18.204h161.564c29.582 0 45.511 9.102 54.613 25.031 0 0 4.551 9.102 9.102 20.48 2.276 11.378 2.276 40.96-29.582 40.96-25.031 0-45.511 0-45.511 0-9.102 0-15.929 6.827-15.929 15.929s6.827 15.929 15.929 15.929c0 0 27.307 0 47.787 0 63.716 0 68.267 27.307 77.369 56.889 6.827 22.756 11.378 61.44-38.684 61.44-22.756 0-59.164 0-59.164 0-9.102 0-15.929 6.827-15.929 15.929s6.827 15.929 15.929 15.929c0 0 20.48 0 70.542 0s61.44 40.96 63.716 63.716c2.276 18.204-2.276 54.613-47.787 54.613s-56.889 0-56.889 0c-9.102 0-15.929 6.827-15.929 15.929s6.827 15.929 15.929 15.929c0 0 15.929 0 59.164 0 52.338 0 59.164 29.582 59.164 43.236 0 9.102 0 9.102 0 18.204 2.276 4.551-2.276 31.858-34.133 40.96zM159.289 77.084c-25.031 0-45.511 20.48-45.511 45.511s20.48 45.511 45.511 45.511c25.031 0 45.511-20.48 45.511-45.511s-20.48-45.511-45.511-45.511zM159.289 136.249c-9.102 0-15.929-6.827-15.929-15.929s6.827-15.929 15.929-15.929c9.102 0 15.929 6.827 15.929 15.929 0 11.378-6.827 15.929-15.929 15.929z" />
<glyph unicode="&#xe609;" glyph-name="web-developer" d="M950.539-12.8h-881.53c-24.487 0-46.748 20.035-46.748 46.748v837.009c0 24.487 20.035 46.748 46.748 46.748h881.53c24.487 0 46.748-20.035 46.748-46.748v-837.009c0-26.713-22.261-46.748-46.748-46.748zM903.791 824.209h-790.261v-745.739h790.261v745.739zM293.843 252.104h46.748v184.765h46.748v-184.765h46.748v463.026h93.496v-556.522h-327.235v556.522h93.496v-463.026zM756.87 668.383h46.748v-463.026h-46.748v-46.748h-184.765v556.522h184.765v-46.748zM710.122 621.635h-46.748v-371.757h46.748v371.757z" />
<glyph unicode="&#xe60a;" glyph-name="ui" d="M29.971 355.59v59.941h954.068v-59.941h-954.068zM709.307 480.468v264.741h272.234v-264.741h-272.234zM914.107 680.273h-139.863v-129.873h139.863v129.873zM369.639 480.468v264.741h272.234v-264.741h-272.234zM574.439 680.273h-139.863v-129.873h139.863v129.873zM29.971 480.468v264.741h272.234v-264.741h-272.234zM234.771 680.273h-139.863v-129.873h139.863v129.873zM29.971 872.585h954.068v-59.941h-954.068v59.941zM302.205 23.415h-272.234v264.741h272.234v-264.741zM234.771 223.22h-139.863v-129.873h139.863v129.873zM641.873 23.415h-272.234v264.741h272.234v-264.741zM574.439 223.22h-139.863v-129.873h139.863v129.873zM981.541 23.415h-272.234v264.741h272.234v-264.741zM914.107 223.22h-139.863v-129.873h139.863v129.873z" />
<glyph unicode="&#xe60b;" glyph-name="print" d="M31.695-3.048v914.286h941.105v-914.286h-941.105zM916.724 855.162h-824.076v-799.695h824.076v799.695zM502.248 740.571h-353.524v56.076h353.524v-56.076zM502.248 455.314h-353.524v229.181h353.524v-229.181zM502.248 340.724h-353.524v56.076h353.524v-56.076zM502.248 226.133h-353.524v56.076h353.524v-56.076zM502.248 111.543h-353.524v56.076h353.524v-56.076zM621.714 740.571h-58.514v56.076h58.514v-56.076zM855.771 625.981h-295.010v56.076h295.010v-56.076zM855.771 511.39h-295.010v56.076h295.010v-56.076zM855.771 111.543h-295.010v341.333h295.010v-341.333zM797.257 796.648h58.514v-56.076h-58.514v56.076zM680.229 740.571v56.076h58.514v-56.076h-58.514z" />
<glyph unicode="&#xe60c;" glyph-name="marketing" d="M390.982 587.636l139.636-55.855 137.309 174.545 18.618 25.6 102.4-88.436v258.327l-116.364-27.927-118.691-27.927 90.764-76.8-137.309-174.545-137.309 53.527-97.745-176.873-155.927 44.218-69.818-232.727-16.291-48.873 37.236-13.964 67.491 230.4 158.255-41.891 97.745 179.2zM325.818 5.818v200.145h-125.673v-200.145h125.673zM484.073 5.818h-125.673v297.891h125.673v-297.891zM642.327 5.818h-123.345v384h123.345v-384zM809.891 5.818h-125.673v493.382h125.673v-493.382zM854.109 631.855v-626.036h123.345v626.036h-123.345z" />
<glyph unicode="&#xe60d;" glyph-name="logo" d="M979.2 642.133l-64-64-85.333 78.933 64 64c10.667 10.667 25.6 12.8 32 6.4l57.6-51.2c8.533-8.533 6.4-23.467-4.267-34.133zM763.733 693.333v-100.267l49.067 49.067 85.333-78.933-134.4-134.4v-407.467h-736v695.467h625.067c29.867 32 55.467 57.6 55.467 57.6s138.667 134.4 181.333 106.667c42.667-27.733-108.8-174.933-108.8-174.933s-8.533-4.267-17.067-12.8zM599.467 537.6c-10.667 6.4-23.467 14.933-34.133 25.6-12.8 10.667-21.333 23.467-29.867 34.133 14.933 17.067 36.267 40.533 59.733 64-166.4 0-469.333 0-507.733 0 0-51.2 0-531.2 0-580.267 53.333 0 563.2 0 616.533 0 0 25.6 0 157.867 0 290.133l-140.8-140.8-85.333 78.933 226.133 224c0 42.667 0 78.933 0 102.4-38.4-36.267-78.933-74.667-104.533-98.133zM343.467 298.667c-55.467-12.8-85.333-55.467-85.333-55.467s-2.133 110.933 42.667 157.867c42.667 42.667 106.667 44.8 113.067 44.8 21.333 34.133 61.867 83.2 113.067 142.933 6.4-10.667 17.067-21.333 27.733-32s21.333-17.067 34.133-23.467c-59.733-53.333-110.933-91.733-145.067-115.2-8.533-68.267-36.267-106.667-100.267-119.467zM544 211.2l-160-78.933-4.267 4.267 78.933 153.6 85.333-78.933z" />
<glyph unicode="&#xe60e;" glyph-name="art-director" d="M950.539-12.8h-881.53c-24.487 0-46.748 20.035-46.748 46.748v837.009c0 24.487 20.035 46.748 46.748 46.748h881.53c24.487 0 46.748-20.035 46.748-46.748v-837.009c0-24.487-22.261-46.748-46.748-46.748zM903.791 824.209h-790.261v-745.739h790.261v745.739zM478.609 158.609h-93.496v231.513h-46.748v-231.513h-93.496v556.522h231.513v-556.522zM387.339 621.635h-46.748v-138.017h46.748v138.017zM756.87 668.383h46.748v-463.026h-46.748v-46.748h-184.765v556.522h184.765v-46.748zM710.122 621.635h-46.748v-371.757h46.748v371.757z" />
<glyph unicode="&#xe60f;" glyph-name="creative-director" d="M909.553 32.376h-795.106c-22.086 0-42.165 18.071-42.165 42.165v754.949c0 22.086 18.071 42.165 42.165 42.165h795.106c22.086 0 42.165-18.071 42.165-42.165v-754.949c0-24.094-18.071-42.165-42.165-42.165zM869.396 787.325h-712.784v-672.627h712.784v672.627zM463.812 604.612h-124.486v-335.31h124.486v-84.329h-208.816v501.961h208.816v-82.322zM714.792 646.776h42.165v-419.639h-42.165v-42.165h-166.651v501.961h166.651v-40.157zM672.627 604.612h-42.165v-335.31h42.165v335.31z" />
<glyph unicode="&#xe610;" glyph-name="freelance-designer" d="M950.539-12.8h-881.53c-24.487 0-46.748 20.035-46.748 46.748v837.009c0 24.487 20.035 46.748 46.748 46.748h881.53c24.487 0 46.748-20.035 46.748-46.748v-837.009c0-24.487-22.261-46.748-46.748-46.748zM903.791 824.209h-790.261v-745.739h790.261v745.739zM478.609 621.635h-138.017v-138.017h93.496v-93.496h-93.496v-231.513h-93.496v556.522h231.513v-93.496zM665.6 252.104h138.017v-93.496h-231.513v556.522h93.496v-463.026z" />
<glyph unicode="&#xe611;" glyph-name="hire-me-text" d="M203.699 904.946c7.339 0 14.683 0 22.022 0 8.379-14.991 54.090-61.512 71.57-66.065 0 1.833 0 3.672 0 5.505 12.844 1.833 25.694 3.672 38.538 5.505 0 1.833 0 3.672 0 5.505 7.339 0 14.683 0 22.022 0 75.638 24.378 177.4 19.473 247.742-5.505 12.844-1.833 25.694-3.672 38.538-5.505 70.386-30.269 144.004-74.268 187.183-132.129 11.011-9.177 22.022-18.355 33.032-27.527 0-3.672 0-7.339 0-11.011 5.505-3.672 11.011-7.339 16.516-11.011 0-3.672 0-7.339 0-11.011 3.672-1.833 7.339-3.672 11.011-5.505 0-3.672 0-7.339 0-11.011 3.672-1.833 7.339-3.672 11.011-5.505 1.833-7.339 3.672-14.683 5.505-22.022 1.833 0 3.672 0 5.505 0 0-3.672 0-7.339 0-11.011 1.833 0 3.672 0 5.505 0 3.672-11.011 7.339-22.022 11.011-33.032 1.833 0 3.672 0 5.505 0 0-5.505 0-11.011 0-16.516 1.833 0 3.672 0 5.505 0 0-3.672 0-7.339 0-11.011 1.833 0 3.672 0 5.505 0 0-5.505 0-11.011 0-16.516 1.833 0 3.672 0 5.505 0 0-7.339 0-14.683 0-22.022 1.833 0 3.672 0 5.505 0 0-7.339 0-14.683 0-22.022 1.833 0 3.672 0 5.505 0 1.833-22.022 3.672-44.043 5.505-66.065 1.833 0 3.672 0 5.505 0 0-29.36 0-58.726 0-88.086-1.833 0-3.672 0-5.505 0 0-16.516 0-33.032 0-49.548-1.833 0-3.672 0-5.505 0-1.833-18.349-3.672-36.704-5.505-55.054-1.833 0-3.672 0-5.505 0-1.833-11.011-3.672-22.022-5.505-33.032-1.833 0-3.672 0-5.505 0-1.833-7.339-3.672-14.683-5.505-22.022-1.833 0-3.672 0-5.505 0 0-3.672 0-7.339 0-11.011-3.672-1.833-7.339-3.672-11.011-5.505 0-3.672 0-7.339 0-11.011-9.172-7.339-18.355-14.683-27.527-22.022-5.505-7.339-11.011-14.683-16.516-22.022-3.672 0-7.339 0-11.011 0-3.672-5.505-7.339-11.011-11.011-16.516-3.672 0-7.339 0-11.011 0-1.833-3.672-3.672-7.339-5.505-11.011-7.339-1.833-14.683-3.672-22.022-5.505 0-1.833 0-3.672 0-5.505-3.672 0-7.339 0-11.011 0 0-1.833 0-3.672 0-5.505-11.011-3.672-22.022-7.339-33.032-11.011 0-1.833 0-3.672 0-5.505-16.516-3.672-33.032-7.339-49.548-11.011 0-1.833 0-3.672 0-5.505-7.339 0-14.683 0-22.022 0 0-1.833 0-3.672 0-5.505-7.339 0-14.683 0-22.022 0 0-1.833 0-3.672 0-5.505-9.172 0-18.355 0-27.527 0 0-1.833 0-3.672 0-5.505-11.011 0-22.022 0-33.032 0 0-1.833 0-3.672 0-5.505-26.095-7.372-155.923-0.584-176.172 5.505 0 1.833 0 3.672 0 5.505-9.177 0-18.349 0-27.527 0 0 1.833 0 3.672 0 5.505-7.339 0-14.683 0-22.022 0 0 1.833 0 3.672 0 5.505-5.505 0-11.011 0-16.516 0 0 1.833 0 3.672 0 5.505-5.505 0-11.011 0-16.516 0 0 1.833 0 3.672 0 5.505-5.505 0-11.011 0-16.516 0 0 1.833 0 3.672 0 5.505-5.505 0-11.011 0-16.516 0 0 1.833 0 3.672 0 5.505-7.339 1.833-14.683 3.672-22.022 5.505 0 1.833 0 3.672 0 5.505-3.672 0-7.339 0-11.011 0-1.833 3.672-3.672 7.339-5.505 11.011-7.339 1.833-14.683 3.672-22.022 5.505-1.833 3.672-3.672 7.339-5.505 11.011-3.672 0-7.339 0-11.011 0-3.672 5.505-7.339 11.011-11.011 16.516-3.672 0-7.339 0-11.011 0-14.677 16.516-29.366 33.032-44.043 49.548-5.505 3.672-11.011 7.339-16.516 11.011 0 3.672 0 7.339 0 11.011-3.672 1.833-7.339 3.672-11.011 5.505 0 3.672 0 7.339 0 11.011-3.672 1.833-7.339 3.672-11.011 5.505-1.833 7.339-3.672 14.683-5.505 22.022-3.672 1.833-7.339 3.672-11.011 5.505 0 3.672 0 7.339 0 11.011-1.833 0-3.672 0-5.505 0-1.833 7.339-3.672 14.683-5.505 22.022-1.833 0-3.672 0-5.505 0 0 5.505 0 11.011 0 16.516-1.833 0-3.672 0-5.505 0 0 3.672 0 7.339 0 11.011-1.833 0-3.672 0-5.505 0-1.833 9.172-3.672 18.349-5.505 27.527-1.833 0-3.672 0-5.505 0 0 5.505 0 11.011 0 16.516-1.833 0-3.672 0-5.505 0 0 7.339 0 14.683 0 22.022-1.833 0-3.672 0-5.505 0 0 5.505 0 11.011 0 16.516-1.833 0-3.672 0-5.505 0 0 7.339 0 14.683 0 22.022-1.833 0-3.672 0-5.505 0 0 7.339 0 14.683 0 22.022-1.833 0-3.672 0-5.505 0 0 11.011 0 22.022 0 33.032-1.833 0-3.672 0-5.505 0 0 14.677 0 29.366 0 44.043-1.833 0-3.672 0-5.505 0 0 22.022 0 44.043 0 66.065 1.833 0 3.672 0 5.505 0 0 12.844 0 25.694 0 38.538 1.833 0 3.672 0 5.505 0 0 5.505 0 11.011 0 16.516 1.833 0 3.672 0 5.505 0 0 7.339 0 14.683 0 22.022 1.833 0 3.672 0 5.505 0 0 3.672 0 7.339 0 11.011 1.833 0 3.672 0 5.505 0 0 5.505 0 11.011 0 16.516 1.833 0 3.672 0 5.505 0 1.833 7.339 3.672 14.683 5.505 22.022 1.833 0 3.672 0 5.505 0 0 3.672 0 7.339 0 11.011 3.672 1.833 7.339 3.672 11.011 5.505 0 3.672 0 7.339 0 11.011 3.672 1.833 7.339 3.672 11.011 5.505 0 3.672 0 7.339 0 11.011 5.505 3.672 11.011 7.339 16.516 11.011 0 3.672 0 7.339 0 11.011 7.339 5.505 14.683 11.011 22.022 16.516 0 1.833 0 3.672 0 5.505 3.672 0 7.339 0 11.011 0 1.833 3.672 3.672 7.339 5.505 11.011 3.672 0 7.339 0 11.011 0 0 1.833 0 3.672 0 5.505 7.339 1.833 14.683 3.672 22.022 5.505 0 1.833 0 3.672 0 5.505 9.177 0 18.355 0 27.527 0 0 1.833 0 3.672 0 5.505-35.741 20.067-47.346 72.164-27.527 115.613zM280.774 756.301c-29.878 1.481-21.68 10.301-44.043 16.516-3.672-5.505-7.339-11.011-11.011-16.516-3.672 0-7.339 0-11.011 0-11.011-12.844-22.022-25.694-33.032-38.538-5.505-3.672-11.011-7.339-16.516-11.011 0-3.672 0-7.339 0-11.011-5.505-3.672-11.011-7.339-16.516-11.011-1.833-7.339-3.672-14.683-5.505-22.022-3.672-1.833-7.339-3.672-11.011-5.505-1.833-9.177-3.672-18.355-5.505-27.527-1.833 0-3.672 0-5.505 0 0-3.672 0-7.339 0-11.011-1.833 0-3.672 0-5.505 0-1.833-11.011-3.672-22.022-5.505-33.032-1.833 0-3.672 0-5.505 0-1.833-22.022-3.672-44.043-5.505-66.065-1.833 0-3.672 0-5.505 0 0-25.688 0-51.387 0-77.075 1.833 0 3.672 0 5.505 0 1.833-22.022 3.672-44.043 5.505-66.065 1.833 0 3.672 0 5.505 0 0-5.505 0-11.011 0-16.516 1.833 0 3.672 0 5.505 0 1.833-12.844 3.672-25.694 5.505-38.538 1.833 0 3.672 0 5.505 0 0-3.672 0-7.339 0-11.011 1.833 0 3.672 0 5.505 0 0-5.505 0-11.011 0-16.516 1.833 0 3.672 0 5.505 0 0-3.672 0-7.339 0-11.011 1.833 0 3.672 0 5.505 0 0-5.505 0-11.011 0-16.516 1.833 0 3.672 0 5.505 0 0-3.672 0-7.339 0-11.011 1.833 0 3.672 0 5.505 0 0-3.672 0-7.339 0-11.011 3.672-1.833 7.339-3.672 11.011-5.505 3.672-11.011 7.339-22.022 11.011-33.032 3.672-1.833 7.339-3.672 11.011-5.505 0-3.672 0-7.339 0-11.011 7.339-5.505 14.683-11.011 22.022-16.516 0-3.672 0-7.339 0-11.011 3.672-1.833 7.339-3.672 11.011-5.505 5.505-7.339 11.011-14.683 16.516-22.022 3.672 0 7.339 0 11.011 0 7.339-9.172 14.683-18.355 22.022-27.527 3.672 0 7.339 0 11.011 0 1.833-3.672 3.672-7.339 5.505-11.011 7.339-1.833 14.683-3.672 22.022-5.505 1.833-3.672 3.672-7.339 5.505-11.011 5.505 0 11.011 0 16.516 0 0-1.833 0-3.672 0-5.505 3.672 0 7.339 0 11.011 0 0-1.833 0-3.672 0-5.505 7.339-1.833 14.683-3.672 22.022-5.505 0-1.833 0-3.672 0-5.505 5.505 0 11.011 0 16.516 0 0-1.833 0-3.672 0-5.505 5.505 0 11.011 0 16.516 0 0-1.833 0-3.672 0-5.505 5.505 0 11.011 0 16.516 0 0-1.833 0-3.672 0-5.505 5.505 0 11.011 0 16.516 0 0-1.833 0-3.672 0-5.505 9.177 0 18.355 0 27.527 0 63.598-18.972 168.184-13.918 225.72 5.505 7.339 0 14.683 0 22.022 0 0 1.833 0 3.672 0 5.505 11.011 1.833 22.022 3.672 33.032 5.505 0 1.833 0 3.672 0 5.505 3.672 0 7.339 0 11.011 0 0 1.833 0 3.672 0 5.505 5.505 0 11.011 0 16.516 0 0 1.833 0 3.672 0 5.505 3.672 0 7.339 0 11.011 0 0 1.833 0 3.672 0 5.505 3.672 0 7.339 0 11.011 0 1.833 3.672 3.672 7.339 5.505 11.011 7.339 1.833 14.683 3.672 22.022 5.505 1.833 3.672 3.672 7.339 5.505 11.011 3.672 0 7.339 0 11.011 0 7.339 9.177 14.683 18.355 22.022 27.527 3.672 0 7.339 0 11.011 0 1.833 5.505 3.672 11.011 5.505 16.516 9.172 7.339 18.349 14.683 27.527 22.022 0 3.672 0 7.339 0 11.011 1.833 0 3.672 0 5.505 0 3.672 11.011 7.339 22.022 11.011 33.032 1.833 0 3.672 0 5.505 0 23.073 52.912 23.475 177.813 5.505 236.731 0 9.172 0 18.355 0 27.527-1.833 0-3.672 0-5.505 0 0 7.339 0 14.683 0 22.022-1.833 0-3.672 0-5.505 0 0 7.339 0 14.683 0 22.022-1.833 0-3.672 0-5.505 0 0 5.505 0 11.011 0 16.516-1.833 0-3.672 0-5.505 0 0 5.505 0 11.011 0 16.516-1.833 0-3.672 0-5.505 0 0 5.505 0 11.011 0 16.516-1.833 0-3.672 0-5.505 0 0 3.672 0 7.339 0 11.011-1.833 0-3.672 0-5.505 0 0 3.672 0 7.339 0 11.011-1.833 0-3.672 0-5.505 0 0 3.672 0 7.339 0 11.011l-11.011 11.011c0 3.672 0 7.339 0 11.011-1.833 0-3.672 0-5.505 0-1.833 5.505-3.672 11.011-5.505 16.516-3.672 1.833-7.339 3.672-11.011 5.505 0 3.672 0 7.339 0 11.011-12.844 11.011-25.694 22.022-38.538 33.032-11.011 12.844-22.022 25.694-33.032 38.538-3.672 0-7.339 0-11.011 0-3.672 5.505-7.339 11.011-11.011 16.516-5.505 1.833-11.011 3.672-16.516 5.505-1.833 3.672-3.672 7.339-5.505 11.011-7.339 1.833-14.683 3.672-22.022 5.505-1.833 3.672-3.672 7.339-5.505 11.011-7.339 1.833-14.683 3.672-22.022 5.505 0 1.833 0 3.672 0 5.505-7.339 1.833-14.683 3.672-22.022 5.505 0 1.833 0 3.672 0 5.505-9.172 1.833-18.349 3.672-27.527 5.505 0 1.833 0 3.672 0 5.505-11.011 1.833-22.022 3.672-33.032 5.505 0 1.833 0 3.672 0 5.505-14.677 1.833-29.366 3.672-44.043 5.505 0 1.833 0 3.672 0 5.505-14.677 0-29.366 0-44.043 0 0 1.833 0 3.672 0 5.505-28.452 7.95-80.72-5.137-99.097-11.011-7.339 0-14.683 0-22.022 0 0-1.833 0-3.672 0-5.505-7.339 0-14.683 0-22.022 0 0-1.833 0-3.672 0-5.505-9.177-1.833-18.349-3.672-27.527-5.505-9.282-3.986-20.75-18.179-44.043-11.011-17.094 5.263-34.645 19.528-49.548 27.527 0-3.672 0-7.339 0-11.011 21.284-11.594 32.944-26.762 33.032-60.559zM209.204 651.699c5.505 0 11.011 0 16.516 0 0-1.833 0-3.672 0-5.505 19.5-20.139 1.635-65.982 0-99.097 27.527-1.833 55.059-3.672 82.581-5.505 5.643 34.403-0.292 63.29 11.011 93.591 5.505 0 11.011 0 16.516 0 7.339-20.183 14.683-40.376 22.022-60.559 0-33.027 0-66.070 0-99.097-5.131-17.111-14.248-33.181-16.516-55.054-38.45 3.903-34.728 40.283-33.032 82.581-29.36 1.833-58.726 3.672-88.086 5.505 1.222-44.99 13.708-64.209 5.505-110.108-7.052-3.248-11.787-5.428-16.516-11.011-11.066 3.16-4.762-0.661-11.011 5.505-17.369 18.691-3.149 53.71-11.011 82.581-1.833 0-3.672 0-5.505 0-9.992 36.258 3.771 86.627 11.011 110.108 0 9.177 0 18.355 0 27.527 4.223 12.255 13.020 23.156 16.516 38.538zM594.581 475.527c0 9.177 0 18.355 0 27.527 9.172 1.833 18.355 3.672 27.527 5.505-0.908 23.954-3.887 43.025-11.011 60.559 1.833 0 3.672 0 5.505 0 11.919 18.162 27.334 13.334 49.548 22.022 0 1.833 0 3.672 0 5.505 5.505 0 11.011 0 16.516 0 0 1.833 0 3.672 0 5.505 5.505 0 11.011 0 16.516 0 0 1.833 0 3.672 0 5.505 9.172 0 18.349 0 27.527 0 43.184 12.767 88.642 1.718 126.624-5.505 0-5.505 0-11.011 0-16.516-9.64-1.464-11.011-5.505-11.011-5.505-9.177 0-18.355 0-27.527 0 0-1.833 0-3.672 0-5.505-12.844 0-25.694 0-38.538 0-29.729-0.193-100.242-5.549-110.108-22.022 0-3.672 0-7.339 0-11.011-1.833 0-3.672 0-5.505 0 0-7.339 0-14.683 0-22.022 55.048 1.833 110.113 3.672 165.161 5.505 0-5.505 0-11.011 0-16.516-3.672-1.833-7.339-3.672-11.011-5.505-17.105-16.632-64.518-16.241-99.097-16.516-11.011 0-22.022 0-33.032 0 0-1.833 0-3.672 0-5.505-7.339-1.833-14.683-3.672-22.022-5.505 0-5.505 0-11.011 0-16.516 58.374-11.148 99.124 7.724 154.151 11.011 4.454-7.234 3.876-6.485 11.011-11.011 0-1.833 0-3.672 0-5.505-1.833 0-3.672 0-5.505 0-8.676-13.4-4.173-3.672-16.516-11.011 0-1.833 0-3.672 0-5.505-3.672 0-7.339 0-11.011 0 0-1.833 0-3.672 0-5.505-3.672 0-7.339 0-11.011 0 0-1.833 0-3.672 0-5.505-14.677-1.833-29.366-3.672-44.043-5.505-78.887-23.26-165.569 12.31-236.731 16.516 0-9.172 0-18.349 0-27.527-9.464-3.578-17.287-5.241-33.032-5.505-1.833 5.505-3.672 11.011-5.505 16.516-13.995 12.057-4.96 14.017-11.011 33.032-18.977 59.629 6.584 118.646 16.516 165.161 50.991 6.381 71.234 20.287 115.613-5.505 3.672 0 7.339 0 11.011 0 0-1.833 0-3.672 0-5.505 5.781-5.219 0.782 0.683 5.505-5.505 1.833 0 3.672 0 5.505 0 0-11.011 0-22.022 0-33.032-1.833 0-3.672 0-5.505 0 0-5.505 0-11.011 0-16.516-1.833 0-3.672 0-5.505 0-9.177-11.011-18.355-22.022-27.527-33.032-7.339-1.833-14.683-3.672-22.022-5.505-14.716-7.988-27.923-20.007-44.043-27.527 0-1.833 0-3.672 0-5.505 1.833 0 3.672 0 5.505 0 23.662-27.945 75.258-19.087 115.613-16.516 0 1.833 0 3.672 0 5.505-1.833 0-3.672 0-5.505 0 0 1.833 0 3.672 0 5.505-7.339 0-14.683 0-22.022 0zM390.882 591.14c5.505 0 11.011 0 16.516 0 0-1.833 0-3.672 0-5.505 12.596-10.851 9.678-20.574 16.516-38.538 1.833 0 3.672 0 5.505 0 0-7.339 0-14.683 0-22.022 1.833 0 3.672 0 5.505 0 0-16.516 0-33.032 0-49.548 1.833 0 3.672 0 5.505 0 0-1.833 0-3.672 0-5.505-1.833 0-3.672 0-5.505 0-1.833-18.349-3.672-36.704-5.505-55.054-7.339 0-14.683 0-22.022 0-7.339 20.183-14.683 40.376-22.022 60.559-9.722 32.564 4.25 88.279 5.505 115.613zM495.484 530.581c33.175 2.648 58.638 26.596 71.57 49.548-19.236 10.168-28.243 11.402-60.559 11.011-1.833-5.505-3.672-11.011-5.505-16.516-1.833 0-3.672 0-5.505 0 0-14.677 0-29.366 0-44.043zM781.763 387.441c0-9.177 0-18.355 0-27.527-1.833 0-3.672 0-5.505 0 0-33.027 0-66.070 0-99.097-1.833 0-3.672 0-5.505 0-3.556-9.7-2.329-14.308-5.505-22.022-3.672 0-7.339 0-11.011 0-1.833 3.672-3.672 7.339-5.505 11.011-20.629 20.673-11.578 96.575-11.011 143.14 8.412 3.177 9.034 4.195 22.022 5.505 6.419-7.493 10.047-8.412 22.022-11.011zM473.462 282.839c0 7.339 0 14.683 0 22.022 5.505 1.833 11.011 3.672 16.516 5.505 20.172 19.874 101.717 9.673 126.624 0-6.546-13.582-13.015-22.644-27.527-27.527-17.937-6.039-37.723 4.614-49.548-5.505-1.833 0-3.672 0-5.505 0 0-7.339 0-14.683 0-22.022 4.735-6.183 4.658 2.235 5.505-5.505-1.833-3.672-3.672-7.339-5.505-11.011 1.833 0 3.672 0 5.505 0 12.673 11.385 86.313 16.786 115.613 16.516 0-1.833 0-3.672 0-5.505 1.833 0 3.672 0 5.505 0 0-3.672 0-7.339 0-11.011-11.715-6.673-11.985-12.398-27.527-16.516-13.048-12.139-55.852-11.49-82.581-11.011 0-9.177 0-18.349 0-27.527 19.236-10.168 28.243-11.402 60.559-11.011 9.656 9.045 40.679 11.176 60.559 11.011 3.177-8.412 4.195-9.034 5.505-22.022-6.177-3.573-8.016-9.040-11.011-11.011-3.672 0-7.339 0-11.011 0-1.833-3.672-3.672-7.339-5.505-11.011-5.505 0-11.011 0-16.516 0 0-1.833 0-3.672 0-5.505-44.489-15.878-109.898 10.141-126.624 38.538-1.833 0-3.672 0-5.505 0-1.833-5.505-3.672-11.011-5.505-16.516-4.344-2.709-36.572-10.262-44.043-11.011-5.505 7.339-11.011 14.683-16.516 22.022-1.833 0-3.672 0-5.505 0-1.833 9.177-3.672 18.349-5.505 27.527-1.833 0-3.672 0-5.505 0-9.172-12.844-18.349-25.694-27.527-38.538-1.833 0-3.672 0-5.505 0-6.496-4.294-0.545 0.495-5.505-5.505-11.066 3.16-4.762-0.661-11.011 5.505-20.491 4.305-36 17.017-44.043 33.032 0 5.505 0 11.011 0 16.516-1.833 0-3.672 0-5.505 0-0.506-25.556-7.966-39.121-16.516-55.054-5.505 1.833-11.011 3.672-16.516 5.505-4.338 17.336-16.742 25.303-22.022 38.538 0 7.339 0 14.683 0 22.022-1.833 0-3.672 0-5.505 0 0 34.866 0 69.737 0 104.602 7.339 0 14.683 0 22.022 0 3.672 7.339 7.339 14.683 11.011 22.022 3.672 0 7.339 0 11.011 0 0 1.833 0 3.672 0 5.505 1.833 0 3.672 0 5.505 0 0-1.833 0-3.672 0-5.505 16.995-3.881 23.42-10.73 27.527-27.527 1.833 0 3.672 0 5.505 0 1.833-11.011 3.672-22.022 5.505-33.032 1.833 0 3.672 0 5.505 0 0-9.177 0-18.355 0-27.527 1.833 0 3.672 0 5.505 0 0-9.172 0-18.349 0-27.527 1.833 0 3.672 0 5.505 0 1.833-9.177 3.672-18.355 5.505-27.527 15.206 3.98 12.316 1.536 16.516 16.516 16.588 14.71 20.502 47.798 27.527 71.57 0 11.011 0 22.022 0 33.032 1.833 0 3.672 0 5.505 0 1.833 9.172 3.672 18.355 5.505 27.527 5.505 1.833 11.011 3.672 16.516 5.505 0-1.833 0-3.672 0-5.505 23.453-16.764 15.927-65.404 16.516-104.602 0-9.177 0-18.355 0-27.527 1.833 0 3.672 0 5.505 0 0-3.672 0-7.339 0-11.011 6.337-11.82 21.234-21.080 33.032-27.527-8.5 18.058-15.762 21.273-16.516 49.548 10.35 8.214 17.854 29.575 11.011 38.538-3.98 15.206-1.536 12.316-16.516 16.516zM313.806 227.785c0-3.672 0-7.339 0-11.011 1.833 0 3.672 0 5.505 0 0 3.672 0 7.339 0 11.011-1.833 0-3.672 0-5.505 0zM781.763 183.742c4.041-21.576 3.947-22.495 0-44.043-14.545-6.502-20.717-10.532-44.043-11.011-6.023 11.44-8.869 9.75-11.011 27.527 1.833 0 3.672 0 5.505 0 0 5.505 0 11.011 0 16.516 1.833 0 3.672 0 5.505 0 6.271 6.271 0.022 2.191 11.011 5.505 0 1.833 0 3.672 0 5.505 11.011 0 22.022 0 33.032 0z" />
<glyph unicode="&#xe612;" glyph-name="scanner" horiz-adv-x="1463" d="M94.476 960l1337.905-344.381-30.476-118.857-1337.905 347.429 30.476 115.81zM0 448h1462.857v-512h-1462.857v512zM121.905 326.095v-268.19c0 0 812.739 0 1219.048 0 0 0 0 178.804 0 268.19h-1219.048zM1121.524 252.952c40.631 0 81.274 0 121.905 0 0-40.631 0-81.274 0-121.905-40.631 0-81.274 0-121.905 0 0 40.631 0 81.274 0 121.905z" />
<glyph unicode="&#xe613;" glyph-name="cabinet" d="M160-32v800l133.344 128h405.344l133.312-128v-800h-672zM192 0h608v736h-608v-736zM224 352h544v-320h-544v320zM416 224v-32h160v96h-32v-64h-96v64h-32v-64zM224 704h544v-320h-544v320zM416 544h160v96h-32v-64h-96v64h-32v-96z" />
<glyph unicode="&#xe614;" glyph-name="files" d="M543.488 446.496h-256v-28.992h256v28.992zM543.488 350.496h-256v-31.008h256v31.008zM384.512 831.488v-96.512h-97.024v-96.512h-94.496v-606.016h447.008v96.992h94.496v94.016h96.512v608h-446.496zM608.992 63.488h-384.992v546.016h384.992v-546.016zM703.488 158.496h-63.488v480h-321.504v65.504h384.992v-545.504zM800 254.496h-65.504v480.512h-319.008v65.504h384.512v-546.016zM543.488 159.008h-256v-31.008h256v31.008zM543.488 255.488h-256v-31.008h256v31.008zM543.968 543.488h-256v-32h256v32z" />
<glyph unicode="&#xe615;" glyph-name="images" horiz-adv-x="1152" d="M1088 832h-64v64c0 35.2-28.8 64-64 64h-896c-35.2 0-64-28.8-64-64v-768c0-35.2 28.8-64 64-64h64v-64c0-35.2 28.8-64 64-64h896c35.2 0 64 28.8 64 64v768c0 35.2-28.8 64-64 64zM128 768v-640h-63.886c-0.040 0.034-0.082 0.076-0.114 0.116v767.77c0.034 0.040 0.076 0.082 0.114 0.114h895.77c0.040-0.034 0.082-0.076 0.116-0.116v-63.884h-768c-35.2 0-64-28.8-64-64v0zM1088 0.116c-0.034-0.040-0.076-0.082-0.116-0.116h-895.77c-0.040 0.034-0.082 0.076-0.114 0.116v767.77c0.034 0.040 0.076 0.082 0.114 0.114h895.77c0.040-0.034 0.082-0.076 0.116-0.116v-767.768zM960 608c0-53.020-42.98-96-96-96s-96 42.98-96 96 42.98 96 96 96 96-42.98 96-96zM1024 64h-768v128l224 384 256-320h64l224 192z" />
<glyph unicode="&#xe616;" glyph-name="library" horiz-adv-x="1152" d="M224 832h-192c-17.6 0-32-14.4-32-32v-704c0-17.6 14.4-32 32-32h192c17.6 0 32 14.4 32 32v704c0 17.6-14.4 32-32 32zM192 640h-128v64h128v-64zM544 832h-192c-17.6 0-32-14.4-32-32v-704c0-17.6 14.4-32 32-32h192c17.6 0 32 14.4 32 32v704c0 17.6-14.4 32-32 32zM512 640h-128v64h128v-64zM765.088 782.52l-171.464-86.394c-15.716-7.918-22.096-27.258-14.178-42.976l287.978-571.548c7.918-15.718 27.258-22.098 42.976-14.178l171.464 86.392c15.716 7.92 22.096 27.26 14.178 42.974l-287.978 571.55c-7.92 15.718-27.26 22.1-42.976 14.18zM928 96c0-17.673-14.327-32-32-32s-32 14.327-32 32c0 17.673 14.327 32 32 32s32-14.327 32-32z" />
<glyph unicode="&#xe617;" glyph-name="file-text" d="M864 960h-768c-52.8 0-96-43.2-96-96v-832c0-52.8 43.2-96 96-96h768c52.8 0 96 43.2 96 96v832c0 52.8-43.2 96-96 96zM832 64h-704v768h704v-768zM256 512h448v-64h-448zM256 384h448v-64h-448zM256 256h448v-64h-448zM256 640h448v-64h-448z" />
<glyph unicode="&#xe618;" glyph-name="resume" d="M864 960h-768c-52.8 0-96-43.2-96-96v-832c0-52.8 43.2-96 96-96h768c52.8 0 96 43.2 96 96v832c0 52.8-43.2 96-96 96zM832 64h-704v768h704v-768zM256 384h448v-64h-448zM256 256h448v-64h-448zM320 672c0 53.019 42.981 96 96 96s96-42.981 96-96c0-53.019-42.981-96-96-96s-96 42.981-96 96zM480 576h-128c-52.8 0-96-28.8-96-64v-64h320v64c0 35.2-43.2 64-96 64z" />
<glyph unicode="&#xe619;" glyph-name="files-empty" d="M917.806 602.924c-22.21 30.292-53.174 65.7-87.178 99.704s-69.412 64.964-99.704 87.178c-51.574 37.82-76.592 42.194-90.924 42.194h-368c-44.114 0-80-35.888-80-80v-736c0-44.112 35.886-80 80-80h608c44.112 0 80 35.888 80 80v496c0 14.332-4.372 39.35-42.194 90.924zM785.374 657.374c30.7-30.7 54.8-58.398 72.58-81.374h-153.954v153.946c22.982-17.78 50.678-41.878 81.374-72.572v0zM896 16c0-8.672-7.328-16-16-16h-608c-8.672 0-16 7.328-16 16v736c0 8.672 7.328 16 16 16 0 0 367.956 0.002 368 0v-224c0-17.672 14.324-32 32-32h224v-496zM602.924 917.804c-51.574 37.822-76.592 42.196-90.924 42.196h-368c-44.112 0-80-35.888-80-80v-736c0-38.632 27.528-70.958 64-78.39v814.39c0 8.672 7.328 16 16 16h486.876c-9.646 7.92-19.028 15.26-27.952 21.804z" />
<glyph unicode="&#xe61a;" glyph-name="display" d="M0 896v-640h1024v640h-1024zM960 320h-896v512h896v-512zM672 192h-320l-32-128-64-64h512l-64 64z" />
<glyph unicode="&#xe61b;" glyph-name="drive" d="M192 64h640c106.038 0 192 85.96 192 192h-1024c0-106.040 85.962-192 192-192zM832 192h64v-64h-64v64zM960 832h-896l-64-512h1024z" />
<glyph unicode="&#xe61c;" glyph-name="equalizer" d="M448 832v16c0 26.4-21.6 48-48 48h-160c-26.4 0-48-21.6-48-48v-16h-192v-128h192v-16c0-26.4 21.6-48 48-48h160c26.4 0 48 21.6 48 48v16h576v128h-576zM256 704v128h128v-128h-128zM832 528c0 26.4-21.6 48-48 48h-160c-26.4 0-48-21.6-48-48v-16h-576v-128h576v-16c0-26.4 21.6-48 48-48h160c26.4 0 48 21.6 48 48v16h192v128h-192v16zM640 384v128h128v-128h-128zM448 208c0 26.4-21.6 48-48 48h-160c-26.4 0-48-21.6-48-48v-16h-192v-128h192v-16c0-26.4 21.6-48 48-48h160c26.4 0 48 21.6 48 48v16h576v128h-576v16zM256 64v128h128v-128h-128z" />
<glyph unicode="&#xe61d;" glyph-name="switch" d="M640 813.412v-135.958c36.206-15.804 69.5-38.408 98.274-67.18 60.442-60.44 93.726-140.8 93.726-226.274s-33.286-165.834-93.726-226.274c-60.44-60.44-140.798-93.726-226.274-93.726s-165.834 33.286-226.274 93.726c-60.44 60.44-93.726 140.8-93.726 226.274s33.286 165.834 93.726 226.274c28.774 28.774 62.068 51.378 98.274 67.182v135.956c-185.048-55.080-320-226.472-320-429.412 0-247.424 200.578-448 448-448 247.424 0 448 200.576 448 448 0 202.94-134.95 374.332-320 429.412zM448 960h128v-512h-128z" />
<glyph unicode="&#xe61e;" glyph-name="flatbed-scanner" horiz-adv-x="1463" d="M190.476 158.171c0 92.343 23.467 111.848 114.59 111.848s765.562 0 863.086 0c0 0 104.533 14.933 104.533-102.705 0 0 0 22.248 0-38.705s-21.638-85.333-76.8-85.333c0 0 0-30.171 0-48.457 0 0 6.705-34.133-34.133-34.133 0 0-836.876 0-865.829 0 0 0-25.905-3.962-25.905 28.343v52.419c0 0-30.781-7.619-58.819 20.114 0 0-20.724 16.457-20.724 67.048v22.857zM1212.038 291.657c0.61 0.61 1.219 1.219 1.829 1.829 16.762 17.067 35.048 47.543 5.486 89.295-33.524 47.543-185.295 187.124-282.514 272.457s-233.752 192-324.876 244.114-110.324-21.029-110.324-21.029l680.229-585.752c2.133-1.829 8.229-7.619 9.143-7.924 10.667-1.219 21.029 7.010 21.029 7.010zM385.524 190.476c0 22.248-17.981 40.229-40.229 40.229s-40.533-17.676-40.533-40.229 17.981-40.229 40.229-40.229 40.533 17.981 40.533 40.229zM501.638 190.476c0 22.248-17.981 40.229-40.229 40.229s-40.229-17.981-40.229-40.229 17.981-40.229 40.229-40.229 40.229 17.981 40.229 40.229zM617.752 190.476c0 22.248-17.981 40.229-40.229 40.229s-40.229-17.981-40.229-40.229 17.981-40.229 40.229-40.229 40.229 17.981 40.229 40.229z" />
<glyph unicode="&#xe61f;" glyph-name="cool" d="M512-64c282.77 0 512 229.23 512 512s-229.23 512-512 512-512-229.23-512-512 229.23-512 512-512zM512 864c229.75 0 416-186.25 416-416s-186.25-416-416-416-416 186.25-416 416 186.25 416 416 416zM800 704c17.6 0 32-14.4 32-32v-96c0-35.2-28.8-64-64-64h-128c-35.2 0-64 28.8-64 64h-128c0-35.2-28.8-64-64-64h-128c-35.2 0-64 28.8-64 64v96c0 17.6 14.4 32 32 32h192c17.6 0 32-14.4 32-32v-32h128v32c0 17.6 14.4 32 32 32h192zM512 192c93.208 0 174.772 49.818 219.546 124.278l54.88-32.934c-55.966-93.070-157.916-155.344-274.426-155.344-48.458 0-94.384 10.796-135.54 30.082l33.162 55.278c31.354-13.714 65.964-21.36 102.378-21.36z" />
<glyph unicode="&#xe620;" glyph-name="cloud189" d="M959.478 202.954l-77.068 66.243v-47.189h-273.133v225.095h45.326v-108.362h97.325v-47.189l77.068 60.041-77.068 66.29v-47.165h-66.715v76.384h96.523c91.76 0 166.068 74.332 166.068 166.044s-74.309 166.068-166.068 166.068c-0.283 0-0.495-0.047-0.684-0.047 0.424 4.882 0.707 9.787 0.707 14.763-0.024 91.712-74.332 166.068-166.092 166.068-62.14 0-116.191-34.171-144.679-84.685-19.102 7.641-39.878 11.98-61.692 11.98-71.502 0-132.274-45.278-155.668-108.645-3.773 0.259-7.523 0.566-11.367 0.566-91.712 0-166.068-74.356-166.068-166.068s74.332-166.044 166.068-166.044h96.547v-76.384h-66.762v47.165l-77.020-66.29 77.020-60.041v47.189h97.349v108.362h45.326v-225.095h-273.18v47.189l-77.020-66.243 77.020-60.065v47.165h303.814v257.049h50.679v-434.036h-47.189l63.13-77.068 63.154 77.068h-47.165v434.036h50.655v-256.979h303.766v-47.165l77.091 59.994z" />
<glyph unicode="&#xe621;" glyph-name="suitcase2" d="M864 32h-736c-35.36 0-64 28.672-64 64v384c0 0 167.072-85.92 320-121.088v-38.912c0-17.696 14.304-32 32-32h160c17.664 0 32 14.304 32 32v38.912c152.896 35.168 320 121.088 320 121.088v-384c0-35.328-28.672-64-64-64zM544 416c17.664 0 32-14.304 32-32v-32c0-17.696-14.336-32-32-32h-96c-17.696 0-32 14.304-32 32v32c0 17.696 14.304 32 32 32h96zM608 416c0 17.696-14.336 32-32 32h-160c-17.696 0-32-14.304-32-32v-28.672c-152.928 36.224-320 124.672-320 124.672v128c0 35.328 28.64 64 64 64h192v64c0 35.328 28.672 64 64 64h224c35.328 0 64-28.672 64-64v-64h192c35.328 0 64-28.672 64-64v-128c0 0-167.104-88.448-320-124.672v28.672zM608 736c0 17.696-14.336 32-32 32h-160c-17.696 0-32-14.304-32-32 0-17.664 0-32 0-32h224c0 0 0 14.336 0 32z" />
<glyph unicode="&#xe622;" glyph-name="pictures" d="M887.456 331.68l-42.112-157.248-1.184-0.32-46.016-171.744-297.472 79.68-3.552-0.928-313.216 83.904-0.544 2.048-83.36 22.368 15.776 58.912 1.024-0.288 154.528 576.704-1.024 0.288 16.288 60.704 547.36-146.688 0.512 1.792 150.752-40.384-98.304-366.72 0.544-2.080zM908.224 656.064l-576.736 154.528-113.856-424.96 576.672-154.496 113.92 424.928zM391.488 531.456l38.208-65.44 99.424 93.6 50.656-88.512 133.92 118.048 33.504-273.888-442.304 118.592 86.592 97.6zM420.064 595.84c-25.12 6.752-40.064 32.608-33.312 57.728 6.72 25.152 32.576 40.096 57.728 33.344 25.12-6.752 40.064-32.608 33.312-57.728-6.72-25.152-32.576-40.096-57.728-33.344zM692.48 816.672l-13.248-3.552-121.44 32.544 179.136 48 27.712-103.392-70.080 18.784-2.080 7.616zM115.744 662.112l39.744-148.32-32.544-121.408-84.16 314.176 181.376 48.608-18.784-70.080-85.632-22.976zM225.856 8.448l-32.576 121.536 243.104-65.152-210.528-56.384z" />
<glyph unicode="&#xe623;" glyph-name="cloud297" d="M317.852 393.214h-211.302c-15.181 0-27.465-12.305-27.465-27.455v-402.294c0-15.15 12.284-27.476 27.465-27.476h211.302c15.171 0 27.465 12.326 27.465 27.476v402.294c-0.010 15.15-12.295 27.455-27.465 27.455zM300.178-19.764h-176.869v368.754h176.869v-368.754zM285.122 95.040h-146.735v-96.955h146.735v96.955zM271.010 13.132h-118.532v66.831h118.532v-66.831zM242.807 68.655h14.081v-44.204h-14.081v44.204zM219.277 68.655h15.026v-44.204h-15.026v44.204zM181.926 23.36c13.053 0 23.675 10.623 23.675 23.686 0 13.053-10.623 23.665-23.675 23.665s-23.665-10.612-23.665-23.665c-0.010-13.063 10.602-23.686 23.665-23.686zM181.926 55.965c4.912 0 8.93-4.019 8.93-8.909 0-4.943-4.029-8.909-8.93-8.909s-8.92 3.998-8.92 8.909c-0.010 4.901 3.998 8.909 8.92 8.909zM285.122 212.617h-146.735v-96.903h146.735v96.903zM271.010 130.75h-118.532v67.724h118.532v-67.724zM242.807 187.187h14.081v-44.194h-14.081v44.194zM219.277 187.187h15.026v-44.194h-15.026v44.194zM181.926 141.467c13.053 0 23.675 10.612 23.675 23.686s-10.623 23.696-23.675 23.696c-13.053 0-23.665-10.623-23.665-23.696-0.010-13.053 10.602-23.686 23.665-23.686zM181.926 174.062c4.912 0 8.93-4.029 8.93-8.899 0-4.932-4.029-8.92-8.93-8.92s-8.92 3.998-8.92 8.92c-0.010 4.88 3.998 8.899 8.92 8.899zM285.122 331.139h-146.735v-96.903h146.735v96.903zM271.010 249.273h-118.532v67.734h118.532v-67.734zM242.807 305.709h14.081v-44.194h-14.081v44.194zM219.277 305.709h15.026v-44.194h-15.026v44.194zM181.926 259.989c13.053 0 23.675 10.602 23.675 23.696 0 13.042-10.623 23.665-23.675 23.665s-23.665-10.623-23.665-23.665c-0.010-13.084 10.602-23.696 23.665-23.696zM181.926 292.594c4.912 0 8.93-4.019 8.93-8.889 0-4.922-4.029-8.909-8.93-8.909s-8.92 3.998-8.92 8.909c-0.010 4.87 3.998 8.889 8.92 8.889zM617.646 393.214h-211.302c-15.181 0-27.465-12.305-27.465-27.455v-402.294c0-15.15 12.284-27.476 27.465-27.476h211.302c15.171 0 27.476 12.326 27.476 27.476v402.294c-0.010 15.15-12.305 27.455-27.476 27.455zM599.983-19.764h-176.869v368.754h176.869v-368.754zM584.926 95.040h-146.746v-96.955h146.746v96.955zM570.794 13.132h-118.532v66.831h118.532v-66.831zM542.601 68.655h14.070v-44.204h-14.070v44.204zM519.071 68.655h15.036v-44.204h-15.036v44.204zM481.72 23.36c13.053 0 23.675 10.623 23.675 23.686 0 13.053-10.623 23.665-23.675 23.665s-23.665-10.612-23.665-23.665c-0.010-13.063 10.602-23.686 23.665-23.686zM481.72 55.965c4.912 0 8.93-4.019 8.93-8.909 0-4.943-4.029-8.909-8.93-8.909s-8.92 3.998-8.92 8.909c-0.010 4.901 4.008 8.909 8.92 8.909zM584.926 212.617h-146.746v-96.903h146.746v96.903zM570.794 130.75h-118.532v67.724h118.532v-67.724zM542.601 187.187h14.070v-44.194h-14.070v44.194zM519.071 187.187h15.036v-44.194h-15.036v44.194zM481.72 141.467c13.053 0 23.675 10.612 23.675 23.686s-10.623 23.696-23.675 23.696c-13.053 0-23.665-10.623-23.665-23.696-0.010-13.053 10.602-23.686 23.665-23.686zM481.72 174.062c4.912 0 8.93-4.029 8.93-8.899 0-4.932-4.029-8.92-8.93-8.92s-8.92 3.998-8.92 8.92c-0.010 4.88 4.008 8.899 8.92 8.899zM584.926 331.139h-146.746v-96.903h146.746v96.903zM570.794 249.273h-118.532v67.734h118.532v-67.734zM542.601 305.709h14.070v-44.194h-14.070v44.194zM519.071 305.709h15.036v-44.194h-15.036v44.194zM481.72 259.989c13.053 0 23.675 10.602 23.675 23.696 0 13.042-10.623 23.665-23.675 23.665s-23.665-10.623-23.665-23.665c-0.010-13.084 10.602-23.696 23.665-23.696zM481.72 292.594c4.912 0 8.93-4.019 8.93-8.889 0-4.922-4.029-8.909-8.93-8.909s-8.92 3.998-8.92 8.909c-0.010 4.87 4.008 8.889 8.92 8.889zM917.44 393.214h-211.292c-15.181 0-27.465-12.305-27.465-27.455v-402.294c0-15.15 12.284-27.476 27.465-27.476h211.313c15.171 0 27.465 12.326 27.465 27.476v402.294c-0.010 15.15-12.295 27.455-27.486 27.455zM899.777-19.764h-176.869v368.754h176.869v-368.754zM884.71 95.040h-146.735v-96.955h146.735v96.955zM870.588 13.132h-118.532v66.831h118.532v-66.831zM842.406 68.655h14.081v-44.204h-14.081v44.204zM818.876 68.655h15.015v-44.204h-15.015v44.204zM781.504 23.36c13.053 0 23.675 10.623 23.675 23.686 0 13.053-10.623 23.665-23.675 23.665s-23.655-10.612-23.655-23.665c0-13.063 10.602-23.686 23.655-23.686zM781.504 55.965c4.922 0 8.93-4.019 8.93-8.909 0-4.943-4.039-8.909-8.93-8.909s-8.909 3.998-8.909 8.909c0 4.901 4.019 8.909 8.909 8.909zM884.71 212.617h-146.735v-96.903h146.735v96.903zM870.588 130.75h-118.532v67.724h118.532v-67.724zM842.406 187.187h14.081v-44.194h-14.081v44.194zM818.876 187.187h15.015v-44.194h-15.015v44.194zM781.504 141.467c13.053 0 23.675 10.612 23.675 23.686s-10.623 23.696-23.675 23.696-23.655-10.623-23.655-23.696c0-13.053 10.602-23.686 23.655-23.686zM781.504 174.062c4.922 0 8.93-4.029 8.93-8.899 0-4.932-4.039-8.92-8.93-8.92s-8.909 3.998-8.909 8.92c0 4.88 4.019 8.899 8.909 8.899zM884.71 331.139h-146.735v-96.903h146.735v96.903zM870.588 249.273h-118.532v67.734h118.532v-67.734zM842.406 305.709h14.081v-44.194h-14.081v44.194zM818.876 305.709h15.015v-44.194h-15.015v44.194zM781.504 259.989c13.053 0 23.675 10.602 23.675 23.696 0 13.042-10.623 23.665-23.675 23.665s-23.655-10.623-23.655-23.665c0-13.084 10.602-23.696 23.655-23.696zM781.504 292.594c4.922 0 8.93-4.019 8.93-8.889 0-4.922-4.039-8.909-8.93-8.909s-8.909 3.998-8.909 8.909c0 4.87 4.019 8.889 8.909 8.889zM537.96 420.379v172.383l186.848-172.383h76.592l-229.277 211.51c2.118 6.334 3.312 13.094 3.312 20.134 0 35.035-28.4 63.435-63.435 63.435s-63.435-28.4-63.435-63.435c0-7.051 1.194-13.8 3.312-20.134l-229.277-211.51h76.592l186.848 172.383v-172.383h51.92zM178.822 436.505l69.302 63.934c-63.664 3.427-114.441 56.156-114.441 120.661 0 66.717 54.287 120.993 120.993 120.993 3.364 0 6.687-0.26 9.979-0.54 19.231-1.485 36.634 10.997 41.318 29.636 16.272 64.858 74.276 110.132 141.045 110.132 38.151 0 74.255-14.735 101.669-41.484 9.366-9.138 22.678-13.021 35.492-10.353 8.162 1.693 16.531 2.565 24.828 2.565 46.707 0 88.44-26.261 108.865-68.544 7.175-14.87 22.876-23.706 39.303-22.014 4.102 0.415 8.183 0.613 12.149 0.613 66.717 0 120.993-54.287 120.993-120.993 0-64.505-50.788-117.234-114.441-120.661l69.302-63.934c72.563 29.926 123.818 101.368 123.818 184.595 0 104.95-81.41 191.261-184.398 199.091-5.597 0.426-10.747 3.281-14.060 7.829-37.174 51.11-97.432 82.687-161.563 82.687-4.434 0-8.868-0.156-13.302-0.447-4.621-0.301-9.211 1.080-12.886 3.894-38.898 29.719-86.218 45.835-135.77 45.835-88.627 0-167.223-51.743-203.338-129.924-2.773-5.981-8.411-10.124-14.932-10.976-97.889-12.751-173.744-96.685-173.744-197.99 0-83.238 51.245-154.679 123.818-184.605z" />
<glyph unicode="&#xe624;" horiz-adv-x="1302" d="M208.271 919.861h885.153c89.863 0 162.712-72.849 162.712-162.712v-618.305c0-89.863-72.849-162.712-162.712-162.712h-885.153c-89.863 0-162.712 72.849-162.712 162.712v618.305c0 89.863 72.849 162.712 162.712 162.712z" />
<glyph unicode="&#xe625;" horiz-adv-x="1302" d="M162.712 802.709c21.693 0 43.392 0 65.085 0 0-43.385 0-86.784 0-130.169 21.693 0 43.392 0 65.085 0 0 43.385 0 86.784 0 130.169 21.693 0 43.392 0 65.085 0 0-108.464 0-216.96 0-325.424-21.693 0-43.392 0-65.085 0 0 43.385 0 86.784 0 130.169-21.693 0-43.392 0-65.085 0 0-43.385 0-86.784 0-130.169-21.693 0-43.392 0-65.085 0 0 108.464 0 216.96 0 325.424zM423.051 802.709c65.078 0 130.176 0 195.254 0 0-21.693 0-43.392 0-65.085-21.693 0-43.392 0-65.085 0 0-65.078 0-130.176 0-195.254 21.693 0 43.392 0 65.085 0 0-21.693 0-43.392 0-65.085-65.078 0-130.176 0-195.254 0 0 21.693 0 43.392 0 65.085 21.693 0 43.392 0 65.085 0 0 65.078 0 130.176 0 195.254-21.693 0-43.392 0-65.085 0 0 21.693 0 43.392 0 65.085zM683.39 802.709c65.078 0 130.176 0 195.254 0 0-43.385 0-86.784 0-130.169-21.693 0-43.392 0-65.085 0 0 21.693 0 43.392 0 65.085-21.693 0-43.392 0-65.085 0 0-21.693 0-43.392 0-65.085 21.693 0 43.392 0 65.085 0 0-21.693 0-43.392 0-65.085-21.693 0-43.392 0-65.085 0 0-43.385 0-86.784 0-130.169-21.693 0-43.392 0-65.085 0 0 108.464 0 216.96 0 325.424zM943.729 802.709c65.078 0 130.176 0 195.254 0 0-21.693 0-43.392 0-65.085-43.385 0-86.784 0-130.169 0 0-21.693 0-43.392 0-65.085 21.693 0 43.392 0 65.085 0 0-21.693 0-43.392 0-65.085-21.693 0-43.392 0-65.085 0 0-21.693 0-43.392 0-65.085 43.385 0 86.784 0 130.169 0 0-21.693 0-43.392 0-65.085-65.078 0-130.176 0-195.254 0 0 108.464 0 216.96 0 325.424zM813.559 607.454c21.693 0 43.392 0 65.085 0 0-43.385 0-86.784 0-130.169-21.693 0-43.392 0-65.085 0 0 43.385 0 86.784 0 130.169zM357.966 412.2c43.385 0 86.784 0 130.169 0 0-21.693 0-43.392 0-65.085-21.693 0-43.392 0-65.085 0 0-86.771 0-173.568 0-260.339-21.693 0-43.392 0-65.085 0 0 108.464 0 216.96 0 325.424zM553.22 412.2c43.385 0 86.784 0 130.169 0 0-108.464 0-216.96 0-325.424-21.693 0-43.392 0-65.085 0 0 86.771 0 173.568 0 260.339-21.693 0-43.392 0-65.085 0 0 21.693 0 43.392 0 65.085zM748.475 412.2c86.771 0 173.568 0 260.339 0 0-21.693 0-43.392 0-65.085-65.078 0-130.176 0-195.254 0 0-21.693 0-43.392 0-65.085 43.385 0 86.784 0 130.169 0 0-21.693 0-43.392 0-65.085-43.385 0-86.784 0-130.169 0 0-21.693 0-43.392 0-65.085 65.078 0 130.176 0 195.254 0 0-21.693 0-43.392 0-65.085-86.771 0-173.568 0-260.339 0 0 108.464 0 216.96 0 325.424zM488.136 347.115c21.693 0 43.392 0 65.085 0 0-43.385 0-86.784 0-130.169-21.693 0-43.392 0-65.085 0 0 43.385 0 86.784 0 130.169z" />
<glyph unicode="&#xe626;" glyph-name="code27" d="M352.142 517.159l-131.45-131.417c-7.58-7.58-11.888-17.913-11.888-28.668 0-10.787 4.308-21.055 11.888-28.668l127.077-127.109c7.936-7.904 18.302-11.888 28.732-11.888 10.366 0 20.764 3.984 28.668 11.888 15.872 15.808 15.872 41.495 0 57.368l-98.409 98.409 102.782 102.75c15.84 15.808 15.84 41.495 0 57.335-15.905 15.84-41.56 15.84-57.4 0zM614.458 459.759l102.815-102.717-98.442-98.409c-15.808-15.808-15.808-41.495 0-57.368 7.904-7.904 18.27-11.856 28.7-11.856s20.796 3.952 28.732 11.856l127.077 127.109c7.58 7.58 11.888 17.946 11.888 28.7 0 10.787-4.308 21.088-11.888 28.7l-131.45 131.385c-15.84 15.84-41.495 15.84-57.368 0-15.905-15.84-15.905-41.56-0.065-57.4zM429.69 90.449c2.624-0.745 5.248-1.199 7.936-1.199 11.532 0 22.286 7.515 25.849 19.177l148.683 485.729c4.47 14.285-3.596 29.413-17.913 33.786-14.35 4.373-29.348-3.66-33.786-17.946l-148.748-485.697c-4.341-14.318 3.66-29.413 17.978-33.85zM363.317 960l-265.2-279.971v-744.029h827.765v1024h-562.565zM339.962 842.252v-124.064h-117.521l117.521 124.064zM861.809-0.024h-699.684v654.204h241.812v241.844h457.872v-896.049z" />
<glyph unicode="&#xe627;" glyph-name="connection27" d="M248.941 619.757c11.175 0 21.971-1.692 32.133-4.831 38.377 43.008 80.929 82.131 127.008 116.868-1.926 8.136-3.061 16.573-3.061 25.31 0 12.065 2.048 23.652 5.676 34.504-51.611 37.042-107.764 68.118-167.478 92.148-55.997-34.604-104.825-79.715-143.737-132.584 28.894-51.155 63.242-98.871 102.276-142.29 14.291 6.901 30.274 10.874 47.181 10.874zM140.019 510.836c0 15.293 3.194 29.852 8.882 43.052-34.971 38.377-66.626 79.804-94.374 123.936-34.816-69.119-54.527-147.143-54.527-229.808 0-95.743 26.334-185.286 72.080-261.93 16.339 92.126 47.348 179.154 90.189 258.98-13.924 18.276-22.249 41.015-22.249 65.769zM513.953 866.049c28.772 0 54.861-11.23 74.328-29.451 56.831 24.453 116.701 43.197 178.953 55.184-75.152 43.308-162.258 68.218-255.24 68.218-63.376 0-124.058-11.609-180.088-32.679 44.477-21.949 86.85-47.593 126.719-76.499 16.228 9.617 35.116 15.226 55.329 15.226zM676.857 352.975c6.778 14.113 16.406 26.59 28.304 36.519-32.144 98.96-83.088 189.449-148.69 267.306-13.056-5.543-27.425-8.615-42.518-8.615-23.63 0-45.434 7.613-63.287 20.391-39.479-30.007-76.020-63.654-109.244-100.373 10.373-16.662 16.462-36.296 16.462-57.366 0-11.386-1.759-22.339-4.986-32.645 95.554-63.843 205.499-107.608 323.959-125.216zM818.156 205.932c1.503-20.624 2.293-41.438 2.293-62.43 0-36.964-2.36-73.371-6.812-109.133 86.805 63.421 152.919 153.454 186.255 258.145-39.479-9.55-80.005-16.373-121.343-20.346-9.728-29.807-31.911-53.926-60.393-66.236zM651.335 279.76c-126.374 20.936-243.565 69.153-345.552 138.25-16.551-10.151-35.973-16.128-56.82-16.128-7.658 0-15.115 0.813-22.339 2.315-48.829-92.571-80.027-195.816-88.998-305.282 48.751-52.268 108.231-94.374 175.046-122.645 82.932 127.576 198.921 233.102 338.662 303.49zM855.699 827.482c-82.042-7.914-160.41-28.505-233.369-59.458 0.39-3.595 0.568-7.224 0.568-10.908 0-17.196-4.096-33.402-11.186-47.871 72.881-85.57 129.501-185.297 165.241-294.464 44.288-0.79 82.164-27.926 98.448-66.459 49.285 4.998 97.279 14.425 143.514 28.026 3.272 23.418 5.087 47.315 5.087 71.668 0 150.482-64.934 285.793-168.301 379.466zM706.14 221.559c-130.447-61.105-239.513-155.212-318.505-270.266 39.813-9.939 81.452-15.293 124.359-15.293 77.233 0 150.415 17.207 216.073 47.827 10.552 51.611 16.139 104.992 16.139 159.675 0 19.756-0.89 39.312-2.371 58.69-13.167 4.218-25.232 10.83-35.695 19.367z" />
<glyph unicode="&#xe628;" glyph-name="connection45" d="M477.867 686.933v-68.267c51.883-0.375 105.199-20.378 144.794-59.972s59.597-92.911 60.006-144.828h68.267c-0.41 69.393-27.034 140.151-80.009 193.092-52.941 52.941-123.699 79.599-193.058 79.974zM477.867 823.467v-68.267c86.801-0.375 175.070-33.69 241.323-99.977 66.253-66.219 99.601-154.487 100.011-241.357h68.267c-0.41 104.311-40.414 210.057-120.013 289.655s-185.31 119.569-289.587 119.945zM863.983 800.051c-106.598 106.633-246.306 159.949-386.116 159.949v-68.267c121.788-0.41 243.439-48.538 336.384-141.449 92.945-92.945 141.073-214.63 141.483-336.418h68.267c0 139.81-53.316 279.552-160.017 386.185zM614.4 448c0 56.559-45.875 102.4-102.4 102.4s-102.4-45.841-102.4-102.4c0-44.544 28.604-81.988 68.267-96.119v-217.327c-3.345-1.195-6.588-2.458-9.762-3.959l-273.545 273.51c6.383 13.312 10.24 28.092 10.24 43.895 0 56.559-45.841 102.4-102.4 102.4s-102.4-45.841-102.4-102.4c0-44.544 28.57-81.988 68.267-96.119v-217.327c-39.697-14.165-68.267-51.61-68.267-96.154 0-56.559 45.841-102.4 102.4-102.4s102.4 45.841 102.4 102.4c0 44.544-28.57 81.988-68.267 96.119v217.327c3.345 1.161 6.588 2.423 9.728 3.925l273.579-273.579c-6.383-13.244-10.24-28.023-10.24-43.793 0-56.559 45.841-102.4 102.4-102.4 56.525 0 102.4 45.841 102.4 102.4 0 44.544-28.604 81.988-68.267 96.119v217.327c39.663 14.165 68.267 51.61 68.267 96.154z" />
<glyph unicode="&#xe629;" glyph-name="efficient2" d="M838.816 387.008c-17.44-100.224-71.904-187.36-148.16-246.208v-71.904c0-69.728-54.464-126.368-124.192-126.368h-185.184c-67.552 0-124.192 56.64-124.192 126.368v71.904c-93.696 69.728-154.688 180.832-154.688 309.376 0 126.368 60.992 239.648 154.688 309.376v71.904c0 69.728 54.464 126.368 124.192 126.368h185.184c67.552 0 124.192-56.64 124.192-126.368v-71.904c76.256-56.64 130.72-143.808 148.16-246.208h69.728v-126.368h-69.728zM474.976 768.256c-169.952 0-307.2-141.632-307.2-318.080s137.248-318.080 307.2-318.080 307.2 141.632 307.2 318.080c0 176.48-137.248 318.080-307.2 318.080zM546.848 434.912c58.816-63.168 137.248-152.512 137.248-152.512s-93.696 60.992-165.568 106.752c15.264 10.88 26.144 28.32 28.32 45.76zM472.768 387.008c-21.792 0-39.232 10.88-50.112 28.32-2.176 2.176-2.176 4.352-4.352 4.352-2.176 2.176-2.176 6.528-4.352 8.704-2.176 6.528-4.352 13.088-4.352 21.792 0 34.848 28.32 63.168 60.992 63.168 6.528 0 13.088-2.176 19.616-4.352s10.88-4.352 15.264-8.704v0 0c15.264-10.88 26.144-30.496 26.144-52.288 2.176-32.672-26.144-60.992-58.816-60.992zM448.832 541.696c8.704 84.96 21.792 196.096 21.792 196.096s15.264-111.104 26.144-196.096c-8.704 4.352-17.44 6.528-26.144 6.528-6.528-2.176-13.088-4.352-21.792-6.528z" />
<glyph unicode="&#xe62a;" glyph-name="global53" d="M249.832 710.086c11.237 56.966 26.437 109.687 45.316 155.985 9.553 23.493 19.928 44.861 31.029 64.2-137.362-49.976-246.534-159.131-296.513-296.522 19.322 11.123 40.719 21.448 64.203 31.012 46.303 18.896 98.99 34.073 155.965 45.325zM557.966 919.463c-21.362 26.5-43.236 40.471-63 40.471-37.532 0-82.726-50.511-117.624-141.615 44.298 31.962 91.23 60.343 140.699 83.608 12.953 6.077 26.318 11.951 39.925 17.536zM740.118 219.814c-11.251-56.989-26.435-109.65-45.325-155.951-9.57-23.487-19.931-44.915-31.021-64.192 137.354 49.979 246.517 159.14 296.502 296.496-19.314-11.089-40.716-21.496-64.195-31.043-46.303-18.867-98.996-34.090-155.962-45.31zM50.004 424.079c24.503 55.714 55.387 108.674 91.087 158.303-90.749-34.87-141.029-79.933-141.092-117.391 0-0.017 0-0.040 0-0.060 0-0.017 0-0.040 0-0.057 0.034-19.78 14.048-41.675 40.619-63.017 3.047 7.491 6.176 14.899 9.385 22.221zM1018.649 762.819c-15.968 80.945-75.879 139.459-155.47 159.322-104.788 26.139-218.945-6.725-313.944-51.415-76.635-36.11-147.314-84.251-211.332-139.524-107.36-92.766-199.369-208.063-256.705-338.316-42.084-95.594-72.249-212.106-38.099-314.752 13.59-40.744 38.161-77.147 73.102-102.41 42.946-31.023 96.601-41.786 148.833-39.316 65.967 3.112 129.576 23.052 189.477 50.923 13.909-11.422 27.649-17.328 40.454-17.328 48.858 0 110.68 85.338 145.88 234.748-47.097-5.107-96.015-7.84-145.88-7.84-49.871 0-98.774 2.734-145.871 7.84 23.61-100.208 59.216-171.592 94.826-207.727-34.73-12.566-70.604-22.014-107.588-27.595-86.538-12.953-193.142 4.122-230.373 94.444-14.449 34.981-16.5 73.682-12.082 111.403 55.95-77.219 133.655-137.752 224.048-172.479 1.96 0.344 3.912 0.694 5.843 1.058-10.179 18.213-19.763 38.218-28.625 60.007-18.879 46.3-34.079 98.962-45.316 155.951-49.396 9.721-95.548 22.44-137.115 37.951 9.644 29.854 21.846 58.869 35.826 86.991 25.718-9.499 54.514-18.224 86.237-25.664-5.104 47.103-7.835 95.975-7.835 145.843 0 2.782 0.046 5.528 0.060 8.247 30.571 42.153 64.308 81.913 100.436 119.437-3.983-39.823-6.213-82.462-6.213-127.684 0-59.031 3.767-113.65 10.327-163.413 49.757-6.563 104.379-10.287 163.413-10.287 59.037 0 113.656 3.727 163.424 10.287 6.546 49.763 10.316 104.381 10.316 163.413 0 59.040-3.769 113.653-10.316 163.424-49.768 6.555-104.387 10.361-163.424 10.361-45.134 0-87.642-2.262-127.451-6.188 20.679 19.641 41.911 38.75 63.668 57.131 17.724 15.010 36.102 29.425 55.048 43.231 2.905 0.017 5.804 0.060 8.734 0.060 49.865 0 98.783-2.711 145.88-7.832-7.442 31.627-16.133 60.368-25.604 86.004 11.283 5.57 22.657 10.811 34.107 15.744 17.246 7.442 34.912 14.264 52.881 20.068 15.473-41.47 28.153-87.571 37.888-136.853 56.966-11.251 109.659-26.429 155.962-45.325 21.738-8.811 41.663-18.367 59.851-28.563 0.364 2.011 0.72 4.097 1.098 6.114-34.653 89.935-94.78 167.222-171.541 223.073 7.343 0.839 14.742 1.385 22.139 1.67 48.027 1.92 91.776-9.286 129.675-39.248-0.094 0.174-0.245 0.327-0.418 0.458 8.341-8.993 16.762-17.22 23.894-27.285 15.974-22.728 24.822-49.441 29.524-76.564 9.206-53.248 1.422-108.777-12.751-160.417-4.378-16.068-9.553-31.851-15.251-47.441-36.352 35.45-107.468 70.806-207.144 94.279 5.118-47.094 7.838-96.043 7.838-145.908s-2.72-98.74-7.838-145.843c149.348 35.146 234.703 96.971 234.788 145.783 0 0.020 0 0.043 0 0.057 0 0.020 0 0.043 0 0.060-0.026 12.842-5.98 26.571-17.411 40.483 36.838 79.52 63.276 170.573 46.118 257.356z" />
<glyph unicode="&#xe62b;" glyph-name="hosting" d="M764.906 646.816h-505.79c-16.179 0-29.375-13.082-29.375-29.292v-99.727c0-16.21 13.196-29.292 29.375-29.292h505.79c16.148 0 29.334 13.082 29.334 29.292v99.727c0 16.21-13.206 29.292-29.334 29.292zM282.638 577.356c-9.995 0-18.095 8.079-18.095 18.085 0 9.975 8.1 18.075 18.095 18.075 10.016 0 18.085-8.1 18.085-18.075 0-10.016-8.069-18.085-18.085-18.085zM717.093 525.214h-127.776v42.437h127.786v-42.437zM764.906 472.398h-505.79c-16.179 0-29.375-13.103-29.375-29.313v-99.716c0-16.19 13.196-29.303 29.375-29.303h505.79c16.148 0 29.334 13.113 29.334 29.303v99.716c0 16.21-13.206 29.313-29.334 29.313zM282.638 402.917c-9.995 0-18.095 8.048-18.095 18.085 0 9.964 8.1 18.106 18.095 18.106 10.016 0 18.085-8.131 18.085-18.106 0-10.027-8.069-18.085-18.085-18.085zM717.093 350.785h-127.776v42.447h127.786v-42.447zM764.906 297.97h-505.79c-16.179 0-29.375-13.103-29.375-29.303v-99.716c0-16.2 13.196-29.313 29.375-29.313h505.79c16.148 0 29.334 13.113 29.334 29.313v99.716c0 16.2-13.206 29.303-29.334 29.303zM282.638 228.509c-9.995 0-18.095 8.027-18.095 18.085 0 9.985 8.1 18.064 18.095 18.064 10.016 0 18.085-8.069 18.085-18.064 0-10.058-8.069-18.085-18.085-18.085zM717.093 176.378h-127.776v42.447h127.786v-42.447zM599.354 44.262h-53.903v78.42h-66.871v-78.42h-53.965v-20.664h-188.681v-66.902h188.681v-20.695h174.739v20.695h188.671v66.902h-188.671zM810.543 807.676c-7.24 0.611-13.89 4.309-18.199 10.14-40.551 54.763-105.569 88.54-174.76 88.54-4.33 0-8.67-0.135-13.010-0.394-6.008-0.363-11.912 1.429-16.707 5.055-42.126 31.768-93.17 48.983-146.596 48.983-95.728 0-180.695-55.457-220.407-139.429-3.646-7.696-10.917-13.041-19.349-14.222-105.506-14.843-186.961-105.703-186.961-215.228 0-104.419 74.028-191.819 172.367-212.608v64.572c0 8.048 1.492 15.723 3.967 22.943-52.587 17.287-90.705 66.788-90.705 125.083 0 72.62 59.082 131.702 131.712 131.702 3.667 0 7.271-0.29 10.866-0.58 20.933-1.626 39.868 11.953 44.974 32.255 17.702 70.579 80.854 119.873 153.526 119.873 41.535 0 80.844-16.034 110.675-45.161 10.192-9.944 24.683-14.18 38.625-11.269 8.898 1.854 17.981 2.797 27.024 2.797 50.847 0 96.257-28.588 118.495-74.598 7.82-16.179 24.911-25.812 42.799-23.968 4.454 0.445 8.898 0.663 13.206 0.663 72.63 0 131.722-59.082 131.722-131.702 0-58.305-38.138-107.795-90.715-125.083 2.465-7.23 3.957-14.895 3.957-22.943v-64.561c98.328 20.778 172.398 108.168 172.398 212.597-0.010 113.617-87.68 207.16-198.904 216.544z" />
<glyph unicode="&#xe62c;" glyph-name="internet50" d="M910.088 264.231h-889.775c-11.217 0-20.312-9.095-20.312-20.315v-207.617c0-11.22 9.095-20.315 20.312-20.315h889.775c11.22 0 20.315 9.095 20.315 20.315v207.617c0 11.22-9.095 20.315-20.315 20.315zM242.816 92.453h-95.308c-26.321 0-47.654 21.337-47.654 47.654 0 26.319 21.335 47.654 47.654 47.654h95.308c26.317 0 47.654-21.335 47.654-47.654 0-26.317-21.337-47.654-47.654-47.654zM512.856 92.453h-95.308c-26.319 0-47.654 21.337-47.654 47.654 0 26.319 21.335 47.654 47.654 47.654h95.308c26.319 0 47.654-21.335 47.654-47.654 0-26.317-21.337-47.654-47.654-47.654zM782.899 92.453h-95.308c-26.324 0-47.656 21.337-47.656 47.654 0 26.319 21.337 47.654 47.656 47.654h95.308c26.314 0 47.652-21.335 47.652-47.654 0-26.317-21.337-47.654-47.652-47.654zM800.214 611.548v-304.895h65.371v304.895c0 18.050-14.634 32.683-32.686 32.683-18.047 0-32.686-14.634-32.686-32.683zM907.168 688.598c6.229 0 12.458 2.382 17.203 7.141 9.465 9.502 9.437 24.875-0.058 34.342-24.445 24.358-56.91 37.775-91.414 37.775s-66.965-13.415-91.41-37.775c-9.502-9.467-9.523-24.84-0.058-34.342 9.465-9.5 24.842-9.523 34.34-0.058 15.282 15.226 35.568 23.612 57.135 23.612s41.853-8.386 57.13-23.612c4.734-4.724 10.937-7.083 17.133-7.083zM1016.873 803.893c-49.165 49.088-114.499 76.123-183.973 76.123-69.469 0-134.807-27.035-183.977-76.123-9.488-9.476-9.502-24.849-0.023-34.342 9.474-9.491 24.852-9.502 34.34-0.026 39.998 39.932 93.148 61.925 149.661 61.925s109.663-21.99 149.661-61.925c4.738-4.734 10.951-7.099 17.156-7.099 6.219 0 12.439 2.377 17.184 7.125 9.476 9.493 9.465 24.866-0.028 34.342z" />
<glyph unicode="&#xe62d;" glyph-name="logo2" d="M979.2 642.144l-64-64-85.344 78.944 64 64c10.656 10.656 25.6 12.8 32 6.4l57.6-51.2c8.544-8.544 6.4-23.456-4.256-34.144zM763.744 693.344v-100.256l49.056 49.056 85.344-78.944-134.4-134.4v-407.456h-736v695.456h625.056c29.856 32 55.456 57.6 55.456 57.6s138.656 134.4 181.344 106.656c42.656-27.744-108.8-174.944-108.8-174.944s-8.544-4.256-17.056-12.8zM599.456 537.6c-10.656 6.4-23.456 14.944-34.144 25.6-12.8 10.656-21.344 23.456-29.856 34.144 14.944 17.056 36.256 40.544 59.744 64-166.4 0-469.344 0-507.744 0 0-51.2 0-531.2 0-580.256 53.344 0 563.2 0 616.544 0 0 25.6 0 157.856 0 290.144l-140.8-140.8-85.344 78.944 226.144 224c0 42.656 0 78.944 0 102.4-38.4-36.256-78.944-74.656-104.544-98.144zM343.456 298.656c-55.456-12.8-85.344-55.456-85.344-55.456s-2.144 110.944 42.656 157.856c42.656 42.656 106.656 44.8 113.056 44.8 21.344 34.144 61.856 83.2 113.056 142.944 6.4-10.656 17.056-21.344 27.744-32s21.344-17.056 34.144-23.456c-59.744-53.344-110.944-91.744-145.056-115.2-8.544-68.256-36.256-106.656-100.256-119.456zM544 211.2l-160-78.944-4.256 4.256 78.944 153.6 85.344-78.944z" />
<glyph unicode="&#xe62e;" glyph-name="perfection2" d="M936.544 413.856h-89.6v-89.6c0-25.6-19.2-44.8-44.8-44.8s-44.8 19.2-44.8 44.8v89.6h-89.6c-25.6 0-44.8 19.2-44.8 44.8s19.2 44.8 44.8 44.8h89.6v89.6c0 25.6 19.2 44.8 44.8 44.8s44.8-19.2 44.8-44.8v-89.6h89.6c25.6 0 44.8-19.2 44.8-44.8s-19.2-44.8-44.8-44.8zM625.056 128c0-25.6-19.2-44.8-44.8-44.8-19.2 0-34.144 12.8-40.544 27.744v0l-57.6 151.456h-307.2l-57.6-151.456c-6.4-17.056-23.456-27.744-40.544-27.744-25.6 0-44.8 19.2-44.8 44.8 0 6.4 2.144 10.656 2.144 17.056v0l253.856 659.2c6.4 17.056 23.456 27.744 40.544 27.744s34.144-12.8 40.544-27.744v0l253.856-659.2c0-4.256 2.144-10.656 2.144-17.056zM328.544 661.344l-119.456-309.344h236.8l-117.344 309.344z" />
<glyph unicode="&#xe62f;" glyph-name="print2" d="M31.68-3.040v914.272h941.12v-914.272h-941.12zM916.736 855.168h-824.064v-799.68h824.064v799.68zM502.24 740.576h-353.536v56.064h353.536v-56.064zM502.24 455.328h-353.536v229.184h353.536v-229.184zM502.24 340.736h-353.536v56.064h353.536v-56.064zM502.24 226.144h-353.536v56.064h353.536v-56.064zM502.24 111.552h-353.536v56.064h353.536v-56.064zM621.728 740.576h-58.528v56.064h58.528v-56.064zM855.776 625.984h-295.008v56.064h295.008v-56.064zM855.776 511.392h-295.008v56.064h295.008v-56.064zM855.776 111.552h-295.008v341.344h295.008v-341.344zM797.248 796.64h58.528v-56.064h-58.528v56.064zM680.224 740.576v56.064h58.528v-56.064h-58.528z" />
<glyph unicode="&#xe630;" glyph-name="printer30" d="M975.596 801.495h-927.185c-26.695 0-48.412-21.714-48.412-48.404v-410.451c0-26.687 21.717-48.401 48.412-48.401h167.768v-181.356c0-10.151 8.229-18.379 18.379-18.379h554.882c10.151 0 18.379 8.229 18.379 18.379v181.356h167.776c26.69 0 48.404 21.714 48.404 48.401v410.451c0 26.69-21.717 48.404-48.404 48.404zM139.739 377.341c-21.717 0-39.385 17.668-39.385 39.385s17.668 39.385 39.385 39.385 39.385-17.668 39.385-39.385-17.668-39.385-39.385-39.385zM771.061 131.264h-518.123v308.074h518.123v-308.074zM774.564 640.641h-525.128c-14.499 0-26.256 11.755-26.256 26.256s11.758 26.256 26.256 26.256h525.128c14.499 0 26.256-11.755 26.256-26.256s-11.758-26.256-26.256-26.256z" />
<glyph unicode="&#xe631;" glyph-name="printer67" d="M320.015 192.006h319.977v-64.011h-319.977v64.011zM256.019 895.997h511.977v-127.999h63.99v127.999c0.002 35.312-28.621 64.003-63.99 64.003h-511.977c-35.345 0-64.003-28.691-64.003-64.003v-127.999h64.003v127.999zM320.015 320.001h383.967v-64.003h-383.967v64.003zM959.991 703.998h-895.974c-35.345 0-64.003-28.683-64.003-63.996v-384.003c0-35.368 28.657-63.99 64.003-63.99h127.999v-192.006c0-35.379 28.657-64.001 64.003-64.001h511.977c35.368 0 63.99 28.621 63.99 64.001v192.006h128.003c35.371 0 63.992 28.621 63.992 63.99v384.003c0.002 35.314-28.619 63.996-63.99 63.996zM767.996 0.001h-511.977v384.003h511.977v-384.003zM895.98 511.996c-35.371 0-63.992 28.626-63.992 64.003 0 35.309 28.621 64.003 63.992 64.003 35.381 0 64.011-28.691 64.011-64.003 0-35.375-28.632-64.003-64.011-64.003z" />
<glyph unicode="&#xe632;" glyph-name="rack" d="M1024 622.834v165.736h-1024v-165.734h50.507v-72.489h-50.507v-165.736h1024v165.736h-58.256v72.486h58.256zM183.838 452.493h-71.643v70.097h71.64v-70.097zM183.838 552.483h-71.643v70.085h71.64v-70.085zM183.838 650.604h-71.643v70.090h71.64v-70.090zM289.742 452.493h-71.636v70.097h71.638v-70.097zM289.742 552.483h-71.636v70.085h71.638v-70.085zM289.742 650.604h-71.636v70.090h71.638v-70.090zM394.092 452.493h-71.64v70.097h71.64v-70.097zM394.092 552.483h-71.64v70.085h71.64v-70.085zM394.092 650.604h-71.64v70.090h71.64v-70.090zM497.353 452.493h-71.643v70.097h71.643v-70.097zM497.353 552.483h-71.643v70.085h71.643v-70.085zM497.353 650.604h-71.643v70.090h71.643v-70.090zM603.243 452.493h-71.633v70.097h71.633v-70.097zM603.243 552.483h-71.633v70.085h71.633v-70.085zM603.243 650.604h-71.633v70.090h71.633v-70.090zM707.612 452.493h-71.631v70.097h71.631v-70.097zM707.612 552.483h-71.631v70.085h71.631v-70.085zM707.612 650.604h-71.631v70.090h71.631v-70.090zM867.87 454.519h-92.489v42.728h92.489v-42.728zM821.269 574.477c-40.763 0-73.809 33.041-73.809 73.807 0 40.732 33.036 73.785 73.809 73.785 40.768 0 73.804-33.041 73.804-73.785-0.002-40.747-33.036-73.807-73.804-73.807zM867.87 648.736c0-25.546-20.695-46.253-46.227-46.253-25.525 0-46.25 20.718-46.25 46.253 0 25.523 20.725 46.212 46.25 46.212 25.53 0 46.227-20.673 46.227-46.212zM669.25 174.81h119.69v-28.381h-119.69v-39h-389.735v39h-107.552v28.381h107.552v31.906h145.243v95.575h99.291v-95.575h145.2v-31.906z" />
<glyph unicode="&#xe633;" glyph-name="rack1" d="M916.685 829.835v130.165h-809.373v-130.151h39.659v-56.935h-39.659v-130.154h809.373v130.154h-45.753v56.935l45.753-0.014zM251.672 696.085h-56.259v55.036h56.259v-55.036zM251.672 774.602h-56.259v55.029h56.259v-55.029zM251.672 851.659h-56.259v55.032h56.259v-55.032zM334.844 696.085h-56.252v55.036h56.252v-55.036zM334.844 774.602h-56.252v55.029h56.252v-55.029zM334.844 851.659h-56.252v55.032h56.252v-55.032zM416.785 696.085h-56.248v55.036h56.248v-55.036zM416.785 774.602h-56.248v55.029h56.248v-55.029zM416.785 851.659h-56.248v55.032h56.248v-55.032zM497.891 696.085h-56.254v55.036h56.254v-55.036zM497.891 774.602h-56.254v55.029h56.254v-55.029zM497.891 851.659h-56.254v55.032h56.254v-55.032zM581.055 696.085h-56.245v55.036h56.245v-55.036zM581.055 774.602h-56.245v55.029h56.245v-55.029zM581.055 851.659h-56.245v55.032h56.245v-55.032zM662.997 696.085h-56.254v55.036h56.254v-55.036zM662.997 774.602h-56.254v55.029h56.254v-55.029zM662.997 851.659h-56.254v55.032h56.254v-55.032zM788.865 697.668h-72.636v33.562h72.636v-33.562zM752.273 791.876c-32.032 0-57.984 25.956-57.984 57.948 0 31.994 25.952 57.957 57.984 57.957 31.998 0 57.954-25.949 57.954-57.957-0.002-32.005-25.943-57.948-57.954-57.948zM788.865 850.188c0-20.061-16.252-36.327-36.306-36.327-20.063 0-36.327 16.266-36.327 36.327 0 20.052 16.264 36.304 36.327 36.304 20.054 0 36.306-16.252 36.306-36.304zM107.312 473.21h39.659v-56.935h-39.659v-130.156h809.373v130.169h-45.753v56.921h45.753v130.151h-809.373v-130.151zM788.865 341.036h-72.636v33.56h72.636v-33.56zM752.273 551.142c31.998 0 57.954-25.956 57.954-57.948 0-32.005-25.943-57.954-57.954-57.954-32.032 0-57.984 25.947-57.984 57.954 0.023 31.989 25.952 57.948 57.984 57.948zM606.742 550.066h56.254v-55.050h-56.254v55.050zM606.742 473.007h56.254v-55.050h-56.254v55.050zM606.742 394.472h56.254v-55.043h-56.254v55.043zM524.81 550.066h56.245v-55.050h-56.245v55.050zM524.81 473.007h56.245v-55.050h-56.245v55.050zM524.81 394.472h56.245v-55.043h-56.245v55.043zM441.634 550.066h56.254v-55.050h-56.254v55.050zM441.634 473.007h56.254v-55.050h-56.254v55.050zM441.634 394.472h56.254v-55.043h-56.254v55.043zM360.538 550.066h56.248v-55.050h-56.248v55.050zM360.538 473.007h56.248v-55.050h-56.248v55.050zM360.538 394.472h56.248v-55.043h-56.248v55.043zM278.576 550.066h56.257v-55.050h-56.257v55.050zM278.576 473.007h56.257v-55.050h-56.257v55.050zM278.576 394.472h56.257v-55.043h-56.257v55.043zM195.413 550.066h56.259v-55.050h-56.259v55.050zM195.413 473.007h56.259v-55.050h-56.259v55.050zM195.413 394.472h56.259v-55.043h-56.259v55.043zM716.229 493.549c0 20.052 16.264 36.3 36.327 36.3 20.054 0 36.306-16.248 36.306-36.3 0-20.047-16.252-36.327-36.306-36.327-20.061 0.014-36.327 16.277-36.327 36.327zM107.312 123.095h39.659v-56.942h-39.659v-130.151h809.373v130.151h-45.753v56.942h45.753v130.149h-809.373v-130.149zM788.865-9.077h-72.636v33.544h72.636v-33.544zM752.273 201.022c31.998 0 57.954-25.949 57.954-57.961 0-31.987-25.943-57.963-57.954-57.963-32.032 0-57.984 25.949-57.984 57.963 0.023 32.009 25.952 57.961 57.984 57.961zM606.742 199.928h56.254v-55.041h-56.254v55.041zM606.742 122.883h56.254v-55.027h-56.254v55.027zM606.742 44.357h56.254v-55.029h-56.254v55.029zM524.81 199.928h56.245v-55.041h-56.245v55.041zM524.81 122.883h56.245v-55.027h-56.245v55.027zM524.81 44.357h56.245v-55.029h-56.245v55.029zM441.634 199.928h56.254v-55.041h-56.254v55.041zM441.634 122.883h56.254v-55.027h-56.254v55.027zM441.634 44.357h56.254v-55.029h-56.254v55.029zM360.538 199.928h56.248v-55.041h-56.248v55.041zM360.538 122.883h56.248v-55.027h-56.248v55.027zM360.538 44.357h56.248v-55.029h-56.248v55.029zM278.576 199.928h56.257v-55.041h-56.257v55.041zM278.576 122.883h56.257v-55.027h-56.257v55.027zM278.576 44.357h56.257v-55.029h-56.257v55.029zM195.413 199.928h56.259v-55.041h-56.259v55.041zM195.413 122.883h56.259v-55.027h-56.259v55.027zM195.413 44.357h56.259v-55.029h-56.259v55.029zM716.229 143.432c0 20.050 16.264 36.286 36.327 36.286 20.054 0 36.306-16.236 36.306-36.286 0-20.052-16.252-36.327-36.306-36.327-20.061 0-36.327 16.275-36.327 36.327z" />
<glyph unicode="&#xe634;" glyph-name="router3" d="M768.203 533.827c0 31.379-24.987 56.831-56.366 56.831s-56.366-25.452-56.366-56.831v-282.643h-655.472v-307.979h898.368v307.979h-130.165v282.643zM162.008 48.035c-26.73 0-48.463 21.733-48.463 48.463s21.733 48.462 48.463 48.462 48.463-21.732 48.463-48.462c-0.116-26.73-21.733-48.463-48.463-48.463zM779.825 145.425v-97.623h-469.522v97.623h469.522zM711.605 654.462c38.817 0 75.309-15.108 102.853-42.536l84.258 84.258c-49.974 49.974-116.335 77.518-186.994 77.518-36.493 0-71.824-7.322-105.061-21.733-32.076-13.946-60.782-33.703-85.072-59.039l85.653-82.747c27.426 28.473 64.616 44.279 104.363 44.279zM711.605 952.794c-59.852 0-118.078-11.738-172.817-34.866-52.879-22.314-100.296-54.39-141.089-95.067l84.258-84.258c61.363 61.363 142.831 95.067 229.647 95.067 86.119 0 167.354-33.355 228.602-94.021l83.793 84.607c-40.676 40.328-87.977 71.939-140.508 94.021-54.506 23.011-112.383 34.517-171.887 34.517z" />
<glyph unicode="&#xe635;" glyph-name="scanner2" d="M66.133 806.4l936.533-241.067-21.333-83.2-936.533 243.2 21.333 81.067zM0 448h1024v-358.4h-1024v358.4zM85.333 362.667v-187.733c0 0 568.917 0 853.333 0 0 0 0 125.163 0 187.733h-853.333zM785.067 311.467c28.442 0 56.892 0 85.333 0 0-28.442 0-56.892 0-85.333-28.442 0-56.892 0-85.333 0 0 28.442 0 56.892 0 85.333z" />
<glyph unicode="&#xe636;" glyph-name="server20" d="M67.052 56.21h301.349v51.221h-301.349v-51.221zM306.628 88.962h41.244v-14.306h-41.244v14.306zM207.192 488.633c0 9.147 7.439 16.571 16.571 16.571s16.571-7.439 16.571-16.571c0-9.123-7.439-16.561-16.571-16.561s-16.571 7.439-16.571 16.561zM314.742 488.633c0 9.147 7.431 16.571 16.561 16.571 9.147 0 16.571-7.439 16.571-16.571 0-9.123-7.441-16.561-16.571-16.561s-16.561 7.439-16.561 16.561zM67.052 190.871h301.349v51.247h-301.349v-51.247zM306.628 223.647h41.244v-14.306h-41.244v14.306zM0-28.391h430.943v604.948h-430.943v-604.948zM331.303 532.332c24.102 0 43.702-19.611 43.702-43.699 0-24.081-19.611-43.685-43.702-43.685-24.081 0-43.678 19.604-43.678 43.685-0.002 24.091 19.585 43.699 43.678 43.699zM223.763 532.332c24.1 0 43.692-19.611 43.692-43.699 0-24.081-19.59-43.685-43.692-43.685s-43.692 19.604-43.692 43.685c0 24.091 19.59 43.699 43.692 43.699zM39.924 405.771h355.606v-105.48h-355.606v105.48zM39.924 269.221h355.606v-105.463h-355.606v105.463zM39.924 134.547h355.606v-105.463h-355.606v105.463zM67.052 327.419h301.349v51.233h-301.349v-51.233zM306.628 362.076h41.244v-14.316h-41.244v14.316zM1023.998 470.561c0-26.522-2.424-52.503-6.82-77.809l-7.917-36.96c-50.974-194.832-228.488-339.046-439.077-339.046-26.748 0-52.934 2.469-78.433 6.934v270.353c11.985-5 21.595-13.593 32.393-22.090 15.855-12.515 40-2.265 58.527-2.89 46.447-1.549 54.423-51.654 57.642-87.905 2.365-26.607 26.94-48.552 20.173-76.37-3.033-12.458-9.518-24.98-19.939-32.719 73.827 13.019 140.749 46.031 195.020 93.3-18.802 47.030-72.978 75.773-68.208 137.675 11.097 105.44 132.665 60.246 201.138 96.15 4.165 23.194 6.43 47.018 6.43 71.377 0 151.53-83.757 283.796-207.347 353.163 2.012-1.882 4.096-3.742 5.909-5.571 79.724-79.71 36.786-85.84 49.056-177.844 0-30.654 63.37-25.553 57.237-80.757-12.249-55.199-14.306-109.358-69.507-63.353-55.18 45.995-91.968 9.185-110.371 15.327-24.554 12.261-36.817 67.459-67.485 67.459-85.833-6.133-30.668-177.852-134.918-128.79-2.043 1.063-3.854 2.293-5.771 3.449v181.724h-57.972c-2.010 69.548-7.465 140.784-67.726 184.489-72.562-42.557-130.425-107.207-165.068-184.489h-53.522c66.098 168.974 230.6 289.024 422.708 289.024 250.266-0.014 453.849-203.586 453.849-453.83z" />
<glyph unicode="&#xe637;" glyph-name="smartphone12" d="M261.795 874.511l-22.126 22.067c84.494 84.524 222.021 84.553 306.515 0.029l-22.126-22.155c-72.319 72.319-189.973 72.319-262.263 0.059zM507.932 858.326c-63.451 63.393-166.618 63.393-230.011-0.029l22.155-22.097c51.159 51.218 134.541 51.218 185.759 0.029l22.097 22.097zM339.616 796.689c29.384 29.443 77.295 29.443 106.708 0l22.126 22.155c-41.618 41.647-109.342 41.647-151.019-0.029l22.185-22.126zM604.162 505.861l-7.024-7.024c-15.658-15.658-15.658-41.033 0.059-56.691l3.073-3.073c15.658-15.687 40.945-15.687 56.661-0.029l52.974 52.915 6.936 6.995c15.658 15.658 15.658 41.062 0 56.72l-3.132 3.102c-15.57 15.658-40.945 15.658-56.691 0l-52.857-52.915zM720.763 481.013l-52.944-52.944c-15.57-15.599-15.57-41.003 0-56.661l3.044-3.102c15.658-15.629 41.003-15.629 56.691 0l7.024 7.053 45.862 45.803 6.936 7.024c15.716 15.658 15.658 40.974 0.059 56.72l-3.073 3.073c-15.629 15.629-40.945 15.716-56.691 0.029l-6.907-6.995zM895.517 223.696l-236.479-236.508c-19.726-19.726-52.008-19.726-71.675-0.029l-40.711 40.74-43.081-43.023c0 0-64.124-63.685-151.019-45.686-0.673 0.146-1.376 0.234-2.019 0.38-3.775 0.819-7.639 1.932-11.473 3.073-3.132 0.937-6.41 2.049-9.6 3.219-3.132 1.171-6.292 2.224-9.483 3.658-6.41 2.78-12.819 5.941-19.346 9.746-1.902 1.141-3.922 2.546-5.883 3.775-5.473 3.366-10.975 7.2-16.507 11.414-2.137 1.639-4.302 3.278-6.527 5.063-7.375 5.941-14.78 12.351-22.243 19.843-83.733 83.733-80.075 158.335-64.417 196.002 0.059 0.117 12.819 47.12 28.301 103.138 4.361 15.921 9.014 32.487 13.551 49.081l-98.426 98.455c-19.726 19.697-19.726 51.949 0 71.705l236.479 236.45c19.726 19.726 52.008 19.726 71.675 0l137.205-137.146 12.468 12.497c15.658 15.658 41.033 15.599 56.72 0l3.073-3.132c15.658-15.629 15.658-40.974 0-56.661l-6.995-7.053-45.803-45.832-7.083-7.024c-15.57-15.599-40.857-15.687-56.632 0l-3.044 3.044c-15.629 15.687-15.629 41.062 0 56.72l6.966 7.024v0.029l15.453 15.453-116.191 116.161-258.371-258.283 63.451-63.393c10.8 38.633 20.458 72.319 25.55 88.358 16.068 50.896 56.632 49.023 75.919 18.058 15.014-23.853 3.366-78.202-4.419-139.722-1.551-12.146-5.619-32.106-10.361-53.296l257.346-257.317 258.224 258.283-19.17 19.17-22.536-22.536c-15.629-15.658-40.974-15.599-56.661 0l-3.132 3.132c-15.629 15.599-15.629 40.916 0 56.661l59.822 59.881c15.658 15.629 40.974 15.658 56.72 0.029l3.044-3.073c15.716-15.658 15.658-41.003 0-56.72l-6.936-6.966 0.059-0.059-5.502-5.444 49.666-49.666c19.726-19.697 19.726-51.92 0.029-71.675zM234.752 563.605c2.341-2.4 6.292-2.341 8.634 0.029l75.685 75.685c2.4 2.371 2.4 6.263 0 8.634-2.4 2.4-6.292 2.4-8.634 0.029l-75.685-75.685c-2.4-2.4-2.4-6.263 0-8.692zM759.337 159.191c-9.892 9.922-25.96 9.922-35.852 0s-9.834-25.96 0-35.852c9.951-9.922 25.96-9.922 35.852-0.029 9.863 9.922 9.863 25.931 0 35.882z" />
<glyph unicode="&#xe638;" glyph-name="speed4" d="M511.998 960c-282.777 0-511.998-229.222-511.998-511.998 0-282.754 229.222-511.998 511.998-511.998 282.757 0 511.998 229.244 511.998 511.998 0 282.777-229.241 511.998-511.998 511.998zM511.998 38.405c-226.225 0-409.597 183.398-409.597 409.597 0 226.225 183.372 409.597 409.597 409.597 226.195 0 409.593-183.372 409.593-409.597 0.003-226.199-183.395-409.597-409.593-409.597zM665.604 499l-132.501-0.538c-14.153-0.065-19.354 9.489-11.655 21.373l141.827 218.062c15.421 23.701 11.697 26.698-8.27 6.705l-311.607-311.578c-20-19.996-13.282-36.119 15.004-36.005l106.872 0.434c28.266 0.117 38.718-19.002 23.3-42.709l-141.82-218.069c-7.702-11.854-5.844-13.383 4.194-3.424l222.709 221.128c10.021 9.972 26.202 26.189 36.093 36.265l71.106 72.104c19.85 20.114 13.002 36.376-15.252 36.252z" />
<glyph unicode="&#xe639;" glyph-name="speed12" d="M599.281 552.667c-4.201 1.833-9.114 0.385-11.652-3.423l-126.871-191.325c-15.577-6.541-28.777-18.817-36.042-35.538-15.019-34.46 0.748-74.552 35.209-89.561 34.462-15.021 74.574 0.746 89.585 35.204 7.29 16.686 7.314 34.738 1.502 50.61l53.689 223.127c1.073 4.491-1.212 9.092-5.42 10.906zM627.632 702.391l-2.146 0.697c-24.376 7.926-46.185 13.127-66.672 15.865-16.937 2.336-34.592 3.474-52.446 3.474-6.044 0-12.264-0.154-18.439-0.39-17.549-0.741-35.467-2.996-53.263-6.8-12.985-2.743-24.361-5.717-34.767-9.004-7.765-2.47-15.241-5.13-24.086-8.372-2.124-0.788-3.842-2.387-4.796-4.425-0.946-2.055-1.044-4.413-0.244-6.534l15.589-41.918c0.805-2.111 2.421-3.818 4.501-4.784 3.028-1.399 7.968 0.432 8.748 0.658 11.483 3.728 20.985 6.373 29.932 8.368 13.017 2.894 23.63 4.652 33.368 5.547 7.049 0.649 14.655 1.151 23.908 1.619 2.355 0.117 4.808 0.168 7.485 0.168 6.044 0 12.154-0.285 18.927-0.651 10.498-0.546 21.57-1.882 34.833-4.235 16.989-2.955 34.384-7.919 56.41-16.062 0.946-0.336 1.946-0.497 2.955-0.497 1.234 0 2.477 0.266 3.625 0.814 2.070 0.968 3.662 2.733 4.413 4.915l17.562 50.705c0.748 2.107 0.595 4.506-0.41 6.551-1.024 2.038-2.821 3.586-4.988 4.291zM292.788 641.37c-1.441 1.78-3.538 2.892-5.815 3.109-2.28 0.215-4.532-0.512-6.276-1.982-11.071-9.365-25.485-21.972-38.8-36.64-14.446-15.86-27.529-32.965-38.885-50.876-13.963-22.028-24.978-44.312-32.727-66.187-3.26-9.162-7.392-21.285-10.579-33.78-2.226-8.733-4.074-17.559-5.63-25.11-0.451-2.221 0-4.523 1.241-6.402 1.256-1.914 3.204-3.204 5.41-3.679l30.859-6.183c0.541-0.107 1.087-0.163 1.641-0.166 0.007 0 0.034 0 0.056 0 6.568 0 7.909 4.947 9.596 11.203 0.78 2.857 1.748 6.51 2.599 9.716 0.909 3.428 1.66 6.312 1.851 6.958 6.217 20.977 15.238 42.069 26.819 62.61 10.511 18.695 23.479 36.508 39.643 54.526 14.273 15.913 30.644 29.313 43.308 39.266 1.809 1.392 2.967 3.45 3.216 5.725 0.258 2.28-0.407 4.564-1.848 6.334l-25.68 31.559zM865.421 329.833l-69.547 7.234c-4.372 0.471-8.382-2.514-9.216-6.819l-3.786-19.356c-1.763-8.567-4.067-16.862-6.507-25.605-0.766-2.738-1.526-5.513-2.277-8.248-4.181-15.44-15.774-41.272-24.788-55.269-1.304-2.021-1.687-4.459-1.087-6.805 0.612-2.302 2.165-4.225 4.281-5.354l67.016-35.057c1.217-0.644 2.575-0.965 3.942-0.965 0.883 0 1.768 0.122 2.621 0.385 2.172 0.724 3.972 2.258 4.991 4.318l5.732 11.498c9.94 19.883 18.091 41.852 24.956 67.099 6.293 23.108 9.321 46.090 11.252 63.522 0.241 2.248-0.407 4.53-1.829 6.293-1.419 1.743-3.501 2.857-5.754 3.131zM778.325 441.029c1.875-7.504 3.701-15.687 5.625-25.012 0.456-2.255 1.794-4.179 3.723-5.425 1.37-0.9 2.974-1.351 4.613-1.351 0.612 0 1.241 0.054 1.877 0.21l64.983 14.599c2.228 0.529 4.159 1.914 5.364 3.85 1.204 1.941 1.565 4.289 1.019 6.532-5.359 21.78-10.857 39.617-17.34 56.059-7.904 20.068-18.137 40.114-31.269 61.286-5.634 9.097-12.222 18.473-20.743 29.535-7.692 9.967-15.618 19.166-23.554 27.307-6.839 6.978-15.945 16.108-25.89 24.654-6.89 5.91-14.017 11.53-20.156 16.35-1.772 1.363-4.047 2.007-6.293 1.726-2.248-0.28-4.291-1.404-5.671-3.216l-35.282-45.41c-2.792-3.616-2.255-8.782 1.231-11.732 0-0.010 6.515-5.52 9.594-8.192 7.434-6.451 14.931-13.892 22.916-22.723 9.060-10.016 15.865-18.434 21.419-26.495 14.221-20.624 24.995-40.333 32.985-60.24 5.040-12.617 8.489-22.879 10.85-32.312zM226.194 216.99c-2.497 5.037-4.813 10.201-6.941 15.031-4.081 9.323-7.914 19.883-12.061 33.168-6.668 21.419-9.701 43.635-11.793 62.547-0.246 2.253-1.399 4.347-3.196 5.739-1.797 1.438-4.091 2.043-6.366 1.775l-27.475-3.594c-2.277-0.285-4.32-1.502-5.703-3.316-1.37-1.824-1.958-4.13-1.616-6.383l0.544-3.662c4.072-27.099 9.318-48.937 16.482-68.698 3.689-10.133 8.202-22.028 13.778-33.56 3.742-7.704 7.924-15.718 13.551-25.983 1.078-1.997 2.926-3.557 5.096-4.189 0.78-0.219 1.56-0.324 2.358-0.324 1.438 0 2.865 0.436 4.125 1.168l19.778 10.949c3.969 2.197 5.517 7.178 3.484 11.249l-4.042 8.082zM874.242 689.271c-96.724 98.782-225.37 153.181-362.242 153.181s-265.518-54.401-362.242-153.181c-96.575-98.621-149.758-229.712-149.758-369.12 0-88.203 21.992-175.414 63.595-252.223 4.796-8.865 14.060-14.38 24.127-14.38h848.55c10.072 0 19.337 5.52 24.13 14.38 41.606 76.81 63.598 164.025 63.598 252.223 0 139.408-53.18 270.499-149.758 369.12zM919.608 108.444h-815.214c-32.434 65.221-49.513 138.069-49.513 211.712 0 257.736 205.061 467.412 457.118 467.412s457.118-209.676 457.118-467.412c0-73.643-17.079-146.493-49.51-211.712z" />
<glyph unicode="&#xe63a;" glyph-name="speedometer44" d="M0 960v-1024h1024v1024h-1024zM911.605 904.266c18.286 0 33.158-14.872 33.11-33.11 0-18.286-14.825-33.208-33.11-33.208s-33.158 14.922-33.158 33.208c0.047 18.188 14.872 33.11 33.158 33.11zM795.795 904.266c18.188 0 33.11-14.872 33.061-33.11 0-18.286-14.872-33.208-33.061-33.208-18.383 0-33.158 14.922-33.158 33.208 0.050 18.188 14.872 33.11 33.158 33.11zM944.763 13.677h-865.524v752.591h865.524v-752.591zM806.376 400.847l-269.752-158.282c-21.308 8.192-46.079 5.9-66.024-8.534-30.915-22.529-37.742-65.974-15.263-96.792 22.626-31.159 66.024-37.839 96.939-15.311 19.895 14.287 29.697 37.254 28.429 59.927l233.57 208.263-7.898 10.729zM164.718 182.979c-4.729 23.015-7.168 46.812-7.168 71.192 0 18.724 1.901 37.010 4.729 54.954l71.094-15.408 10.582 48.762-70.85 15.263c9.849 31.987 24.235 61.975 42.277 89.43l51.688-38.375 29.697 40.034-50.955 37.839c23.211 26.283 50.225 48.957 80.263 67.389l29.453-55.54 44.031 23.356-29.453 55.393c36.182 15.652 75.582 25.063 116.835 27.696v-60.465h49.786v60.221c41.203-3.122 80.311-13.312 116.346-29.453l-28.332-53.345 43.934-23.356 28.185 53.15c29.403-18.53 55.833-41.203 78.457-67.34l-47.836-35.5 29.697-40.034 48.030 35.644c17.409-27.014 31.451-56.417 40.959-87.87l-65.877-14.19 10.582-48.762 66.024 14.287c2.731-17.553 4.535-35.5 4.535-53.833 0-24.38-2.487-48.177-7.216-71.192h43.154c4.243 23.211 6.827 46.812 6.827 71.192 0 217.868-176.714 394.63-394.63 394.63-218.015 0-394.679-176.762-394.679-394.63 0-24.38 2.536-47.983 6.73-71.192l43.102 0.050z" />
<glyph unicode="&#xe63b;" glyph-name="stats11" d="M548.874 959.033v-474.559h474.626c-17.537 254.25-220.343 457.056-474.626 474.559zM557.175 413.293l202.74-412.181c148.196 81.716 251.883 234.112 264.085 412.181h-466.825zM788.121 105.066l-116.623 237.046h269.519c-23.338-93.552-76.915-176.701-152.897-237.046zM477.727 959.1c-266.685-17.67-477.727-239.013-477.727-510.2 0-282.755 229.211-512 511.967-512 64.679 0 126.191 12.769 183.102 34.773l-217.376 441.62 0.033 545.807z" />
<glyph unicode="&#xe63c;" glyph-name="ui2" d="M29.984 355.584v59.936h954.080v-59.936h-954.080zM709.312 480.48v264.736h272.224v-264.736h-272.224zM914.112 680.288h-139.872v-129.888h139.872v129.888zM369.632 480.48v264.736h272.224v-264.736h-272.224zM574.432 680.288h-139.872v-129.888h139.872v129.888zM29.984 480.48v264.736h272.224v-264.736h-272.224zM234.784 680.288h-139.872v-129.888h139.872v129.888zM29.984 872.576h954.080v-59.936h-954.080v59.936zM302.208 23.424h-272.224v264.736h272.224v-264.736zM234.784 223.232h-139.872v-129.888h139.872v129.888zM641.888 23.424h-272.224v264.736h272.224v-264.736zM574.432 223.232h-139.872v-129.888h139.872v129.888zM981.536 23.424h-272.224v264.736h272.224v-264.736zM914.112 223.232h-139.872v-129.888h139.872v129.888z" />
<glyph unicode="&#xe63d;" glyph-name="web-developer2" d="M950.528-12.8h-881.536c-24.48 0-46.752 20.032-46.752 46.752v837.024c0 24.48 20.032 46.752 46.752 46.752h881.536c24.48 0 46.752-20.032 46.752-46.752v-837.024c0-26.72-22.272-46.752-46.752-46.752zM903.776 824.224h-790.272v-745.728h790.272v745.728zM293.856 252.096h46.752v184.768h46.752v-184.768h46.752v463.040h93.504v-556.512h-327.232v556.512h93.504v-463.040zM756.864 668.384h46.752v-463.040h-46.752v-46.752h-184.768v556.512h184.768v-46.752zM710.112 621.632h-46.752v-371.744h46.752v371.744z" />
<glyph unicode="&#xe63e;" glyph-name="wifisignal5" d="M286.302 618.779v-204.8c0-5.769 4.678-10.449 10.449-10.449 5.769 0 10.449 4.678 10.449 10.449v204.8c0 5.769-4.678 10.449-10.449 10.449-5.769 0-10.449-4.678-10.449-10.449zM716.8 618.779v-204.8c0-5.769 4.678-10.449 10.449-10.449 5.769 0 10.449 4.678 10.449 10.449v204.8c0 5.769-4.68 10.449-10.449 10.449-5.771 0-10.449-4.678-10.449-10.449zM727.249 737.201c17.125 0 34.25 6.519 47.286 19.555 4.081 4.081 4.081 10.698 0 14.778s-10.695 4.081-14.778 0c-17.927-17.927-47.094-17.927-65.019 0-4.081 4.081-10.695 4.081-14.778 0-4.081-4.081-4.081-10.698 0-14.778 13.038-13.038 30.161-19.555 47.288-19.555zM727.249 653.647c38.532 0 77.061 14.666 106.396 43.999 4.081 4.081 4.081 10.698 0 14.778s-10.695 4.081-14.778 0c-50.519-50.519-132.718-50.519-183.237 0-4.081 4.081-10.695 4.079-14.778 0-4.081-4.081-4.081-10.698 0-14.778 29.336-29.33 67.867-43.999 106.397-43.999zM727.249 695.423c27.827 0 55.656 10.593 76.842 31.777 4.081 4.081 4.081 10.698 0 14.778s-10.698 4.081-14.778 0c-34.222-34.222-89.905-34.222-124.128 0-4.081 4.081-10.695 4.079-14.778 0-4.081-4.081-4.081-10.698 0-14.778 21.186-21.184 49.013-31.777 76.842-31.777zM336.65 653.578c2.675 0 5.348 1.021 7.389 3.060 4.081 4.081 4.081 10.698 0 14.778-26.075 26.075-68.499 26.075-94.574 0-4.081-4.081-4.081-10.698 0-14.778s10.695-4.081 14.778 0c17.927 17.927 47.094 17.927 65.021 0 2.038-2.041 4.712-3.060 7.387-3.060zM205.133 715.744c50.519 50.519 132.718 50.519 183.237 0 2.040-2.040 4.715-3.060 7.387-3.060s5.348 1.019 7.387 3.060c4.081 4.081 4.081 10.698 0 14.778-58.668 58.664-154.122 58.664-212.79 0-4.081-4.081-4.081-10.698 0-14.778s10.698-4.079 14.778 0zM366.204 683.132c2.675 0 5.349 1.021 7.389 3.060 4.081 4.081 4.081 10.698 0 14.778-20.524 20.525-47.815 31.828-76.842 31.828s-56.317-11.304-76.842-31.828c-4.081-4.081-4.081-10.698 0-14.778s10.695-4.079 14.778 0c16.578 16.578 38.619 25.709 62.062 25.709s45.486-9.131 62.062-25.709c2.045-2.041 4.717-3.060 7.392-3.060zM940.408 386.811c-285.606 0-571.21 0-856.817 0-46.165 0-83.592-37.426-83.592-83.592 0-32.741 0-65.479 0-98.22 0-46.165 37.426-83.592 83.592-83.592 22.988 0 45.976 0 68.963 0h83.592c183.902 0 367.803 0 551.707 0h83.592c22.988 0 45.976 0 68.963 0 46.165 0 83.592 37.426 83.592 83.592 0 32.741 0 65.479 0 98.22 0.002 46.167-37.425 83.592-83.59 83.592zM200.62 189.202c-33.471 0-60.603 27.134-60.603 60.603 0 33.471 27.134 60.603 60.603 60.603s60.603-27.134 60.603-60.603c0-33.472-27.133-60.603-60.603-60.603zM764.866 224.728c-13.849 0-25.078 11.229-25.078 25.078 0 13.851 11.229 25.078 25.078 25.078s25.078-11.227 25.078-25.078c-0.002-13.851-11.229-25.078-25.078-25.078zM863.086 224.728c-13.849 0-25.078 11.229-25.078 25.078 0 13.851 11.229 25.078 25.078 25.078s25.078-11.227 25.078-25.078c-0.002-13.851-11.229-25.078-25.078-25.078z" />
<glyph unicode="&#xe63f;" glyph-name="wifisignal7" d="M864.624 631.91l-91.571 0.111c-59.872 85.013-156.653 135.441-261.054 135.441-104.404 0-201.219-50.465-261.131-135.547h-91.492c-87.88-0.002-159.376-71.494-159.376-159.371v-49.172c0-87.828 71.496-159.279 159.376-159.279h91.487c59.87-85.082 156.687-135.55 261.136-135.55 104.298 0 201.029 50.376 260.95 135.3l91.675 0.25c87.882 0 159.376 71.491 159.376 159.366v49.172c0 87.828-71.496 159.279-159.376 159.279zM412.552 507.32l-50.181-138.767c-0.897-2.469-3.311-4.139-5.884-4.075l-18.669 0.22c-2.627 0.032-4.947 1.722-5.782 4.213l-29.47 87.892-29.614-87.914c-0.835-2.483-3.146-4.166-5.768-4.206l-18.639-0.264c-0.030 0-0.057 0-0.086 0-2.587 0-4.898 1.609-5.797 4.040l-51.213 138.762c-0.568 1.537-0.502 3.237 0.183 4.725s1.935 2.642 3.474 3.21l18.548 6.845c3.19 1.184 6.751-0.457 7.935-3.66l35.455-96.064 30.338 90.074c0.85 2.516 3.205 4.206 5.854 4.206 0.005 0 0.005 0 0.005 0l18.741-0.015c2.654-0.002 5.009-1.7 5.854-4.213l30.007-89.498 34.504 95.411c0.556 1.539 1.703 2.797 3.185 3.492 1.488 0.697 3.18 0.773 4.725 0.215l18.59-6.724c3.205-1.154 4.866-4.698 3.707-7.905zM457.533 376.112c0-3.413-2.765-6.178-6.178-6.178h-19.769c-3.413 0-6.178 2.765-6.178 6.178v89.345c0 3.413 2.765 6.178 6.178 6.178h19.769c3.413 0 6.178-2.765 6.178-6.178v-89.345zM441.471 487.961c-10.218 0-18.528 8.313-18.528 18.533s8.31 18.533 18.528 18.533c10.223 0 18.533-8.313 18.533-18.533s-8.31-18.533-18.533-18.533zM984.462 423.456c0-66.072-53.759-119.828-119.838-119.828l-284.302-0.264c-23.626 0-45.888 0-65.615 0.096 12.252 12.793 21.177 28.969 21.177 49.373v122.171c0 64.777 52.723 117.478 117.528 117.478l211.212-0.111c66.080 0 119.838-53.714 119.838-119.742v-49.172zM726.623 531.586h-90.682c-3.413 0-6.178-2.765-6.178-6.178v-150.472c0-3.413 2.765-6.178 6.178-6.178h19.769c3.413 0 6.178 2.765 6.178 6.178v53.855h51.883c3.413 0 6.178 2.765 6.178 6.178v19.769c0 3.413-2.765 6.178-6.178 6.178h-51.883v38.547h64.735c3.413 0 6.178 2.765 6.178 6.178v19.769c0 3.413-2.765 6.178-6.178 6.178zM784.751 469.436h-19.769c-3.413 0-6.178-2.765-6.178-6.178v-89.347c0-3.413 2.765-6.178 6.178-6.178h19.769c3.413 0 6.178 2.765 6.178 6.178v89.347c0 3.41-2.765 6.178-6.178 6.178zM774.867 525.028c-10.218 0-18.533-8.313-18.533-18.533s8.315-18.533 18.533-18.533c10.218 0 18.528 8.313 18.528 18.533s-8.31 18.533-18.528 18.533z" />
<glyph unicode="&#xe640;" glyph-name="graphic-designer" horiz-adv-x="1122" d="M1041.067-59.124h-960.61c-26.819 0-51.2 21.943-51.2 51.2v911.848c0 26.819 21.943 51.2 51.2 51.2h960.61c26.819 0 51.2-21.943 51.2-51.2v-911.848c0-29.257-21.943-51.2-51.2-51.2zM992.305 852.724h-860.648v-814.324h860.648v814.324zM819.2 696.686h51.2v-507.124h-51.2v-51.2h-202.362v607.086h202.362v-48.762zM768 645.486h-51.2v-404.724h51.2v404.724zM265.752 143.238v597.333h248.686v-99.962h-148.724v-399.848h48.762v248.686h99.962v-348.648l-248.686 2.438z" />
<glyph unicode="&#xe641;" glyph-name="grin" d="M512-64c282.77 0 512 229.23 512 512s-229.23 512-512 512-512-229.23-512-512 229.23-512 512-512zM512 864c229.75 0 416-186.25 416-416s-186.25-416-416-416-416 186.25-416 416 186.25 416 416 416zM192 448v-64c0-140.8 115.2-256 256-256h128c140.8 0 256 115.2 256 256v64h-640zM384 203.012c-26.538 9.458-50.924 24.822-71.544 45.446-36.406 36.402-56.456 84.54-56.456 135.542h128v-180.988zM576 192h-128v192h128v-192zM711.544 248.458c-20.624-20.624-45.010-35.988-71.544-45.446v180.988h128c0-51.002-20.048-99.14-56.456-135.542zM225.352 576c0.002 0 0 0 0 0 9.768 0 18.108 7.056 19.724 16.69 6.158 36.684 37.668 63.31 74.924 63.31s68.766-26.626 74.924-63.31c1.616-9.632 9.956-16.69 19.722-16.69 9.768 0 18.108 7.056 19.724 16.688 1.082 6.436 1.628 12.934 1.628 19.312 0 63.962-52.038 116-116 116s-116-52.038-116-116c0-6.378 0.548-12.876 1.628-19.312 1.62-9.632 9.96-16.688 19.726-16.688zM609.352 576c0.002 0 0 0 0 0 9.77 0 18.112 7.056 19.724 16.69 6.158 36.684 37.668 63.31 74.924 63.31s68.766-26.626 74.924-63.31c1.616-9.632 9.958-16.69 19.722-16.69s18.108 7.056 19.722 16.688c1.082 6.436 1.628 12.934 1.628 19.312 0 63.962-52.038 116-116 116s-116-52.038-116-116c0-6.378 0.544-12.876 1.626-19.312 1.624-9.632 9.964-16.688 19.73-16.688z" />
</font>
</defs>
</svg>
