<?xml version="1.0" encoding="utf-8"?>
<!-- Generator: Adobe Illustrator 19.0.0, SVG Export Plug-In . SVG Version: 6.00 Build 0)  -->
<svg version="1.1" id="Layer_1" xmlns="http://www.w3.org/2000/svg" xmlns:xlink="http://www.w3.org/1999/xlink" x="0px" y="0px"
	 viewBox="-372 286 46 42" style="enable-background:new -372 286 46 42;" xml:space="preserve">
<style type="text/css">
	.st0{fill:#FF6C00;}
</style>
<path id="path-1" class="st0" d="M-329.3,327.7h-39.6c-1.1,0-2.1-0.9-2.1-2.1v-37.6c0-1.1,0.9-2.1,2.1-2.1h39.6
	c1.1,0,2.1,0.9,2.1,2.1v37.6C-327.2,326.7-328.2,327.7-329.3,327.7z M-331.4,290.1h-35.5v33.5h35.5V290.1z M-350.5,320h-4.2v-10.4
	h-2.1V320h-4.2v-25h10.4V320z M-354.6,299.2h-2.1v6.2h2.1V299.2z M-338,297.1h2.1v20.8h-2.1v2.1h-8.3v-25h8.3V297.1z M-340.1,299.2
	h-2.1v16.7h2.1V299.2z"/>
</svg>
