<?xml version="1.0" encoding="utf-8"?>
<!-- Generator: Adobe Illustrator 19.0.0, SVG Export Plug-In . SVG Version: 6.00 Build 0)  -->
<svg version="1.1" id="Layer_1" xmlns="http://www.w3.org/2000/svg" xmlns:xlink="http://www.w3.org/1999/xlink" x="0px" y="0px"
	 viewBox="-373 285 45 43" style="enable-background:new -373 285 45 43;" xml:space="preserve">
<style type="text/css">
	.st0{fill:#FF6C00;}
</style>
<path id="path-1" class="st0" d="M-330.2,303.8l0,0.3c0,1-0.4,2-1.1,2.8c0.5,0.9,0.7,2,0.5,3.1c-0.3,1.7-1,2.9-1.7,3.6
	c0.3,0.8,0.5,2,0,3.6c-0.3,0.9-0.7,2.4-2.1,3.4c0.2,0.9,0.2,1.7,0,2.3c-0.2,0.8-0.5,1.4-0.6,1.4c-0.9,1.7-2.5,2.5-4.7,2.5h-7.1
	c-3.6,0-7.1-0.7-7.8-0.9c-3.1-0.7-4.5-1.1-5.3-1.2c0,0,0,0-0.1,0c-0.1,0-0.2-0.1-0.3-0.1c0,0,0,0-0.1,0c-0.6,1.3-1.9,2.2-3.5,2.2
	h-3.9c-2.2,0-3.9-1.8-3.9-3.9v-20.8c0-2.2,1.8-3.9,3.9-3.9h3.9c1,0,1.9,0.5,2.6,1l-0.1-0.1c0.1-0.1,1.1-0.5,1.4-0.7
	c4.4-2.3,5.2-6.8,5.2-9.4c0-2.1,1.8-3.9,3.9-3.9c3,0,6.4,4.1,6.4,8.8c0,2-0.1,3.1-0.3,4.3c5.6,0.1,9.4,0.1,11.1,0.6
	c2.6,0.7,3.7,2.8,3.7,4.5C-330.1,303.5-330.1,303.6-330.2,303.8z M-362.7,301.9c0-0.7-0.6-1.3-1.3-1.3h-3.9c-0.7,0-1.3,0.6-1.3,1.3
	v20.8c0,0.7,0.6,1.3,1.3,1.3h3.9c0.7,0,1.3-0.6,1.3-1.3V301.9z M-334.3,301.1c-1.2-0.3-1.1-0.5-14.1-0.5c1.1-3.2,1.2-3.8,1.2-6.8
	c0-3.4-2.4-6.2-3.8-6.2c-0.8,0-1.3,0.7-1.3,1.3c-0.1,4.4-1.9,9.8-7.8,12.3c-0.1,0-0.2,0.1-0.3,0.1c-0.6,0.2-1,0.7-1,1.4l0,18
	c0,1,1.1,1.1,1.1,1.1c0.3,0.1,0.6,0.2,6,1.4c0.1,0,3.6,0.8,7.2,0.8h7.1c1.3,0,2-0.4,2.4-1.1c0,0,0.2-0.4,0.4-0.9
	c0.1-0.5,0.1-1.8-1.3-1.8c-1.1,0-2,0-2,0c-0.4,0-0.7-0.3-0.7-0.7c0-0.4,0.3-0.7,0.7-0.7c0,0,1.2,0,2.1,0c2.8,0,3-1.2,3.4-2.5
	c0.3-1,0.5-2.7-1.7-2.7c-1,0-2.6,0-2.6,0c-0.4,0-0.7-0.3-0.7-0.7c0-0.4,0.3-0.7,0.7-0.7c0,0,0.9,0,3.1,0c2.2,0,2.7-1.8,2.8-2.8
	c0.1-0.8-0.1-2.4-2.1-2.4c-2,0-2.5,0-2.5,0c-0.4,0-0.7-0.3-0.7-0.7c0-0.4,0.3-0.7,0.7-0.7c0,0,0.7,0,2.6,0c2.3,0,2.6-1.3,2.6-1.9
	c0-0.4,0-0.4,0-0.8C-332.7,302.7-332.9,301.5-334.3,301.1z M-366,322.8c-1.1,0-2-0.9-2-2s0.9-2,2-2c1.1,0,2,0.9,2,2
	S-364.9,322.8-366,322.8z M-366,320.2c-0.4,0-0.7,0.3-0.7,0.7c0,0.4,0.3,0.7,0.7,0.7c0.4,0,0.7-0.3,0.7-0.7
	C-365.3,320.4-365.6,320.2-366,320.2z"/>
</svg>
