<?xml version="1.0" encoding="utf-8"?>
<!-- Generator: Adobe Illustrator 19.0.0, SVG Export Plug-In . SVG Version: 6.00 Build 0)  -->
<svg version="1.1" id="Layer_1" xmlns="http://www.w3.org/2000/svg" xmlns:xlink="http://www.w3.org/1999/xlink" x="0px" y="0px"
	 viewBox="-370 282 50 50" style="enable-background:new -370 282 50 50;" xml:space="preserve">
<style type="text/css">
	.st0{fill:#FF6C00;}
</style>
<path id="path-1" class="st0" d="M-322.5,309.1v1h-19V329h2.7v3h-12.5v-3h2.7v-18.8h-19v-1h-1.4V282h47.9v27.1H-322.5z
	 M-322.6,283.6h-44.8v23.1h4.2v-0.8c-0.7-0.3-1.3-1.1-1.3-2c0-1.2,0.9-2.2,2-2.2s2,1,2,2.2c0,0.9-0.5,1.7-1.3,2v0.8h13.1h2.8V306
	c-0.7-0.3-1.3-1.1-1.3-2c0,0,0,0,0,0c0-1.2,0.9-2.1,2-2.1c1.1,0,2,1,2,2.1c0,0,0,0,0,0c0,0.9-0.5,1.7-1.3,2v0.7h2.8h12.6V306
	c-0.7-0.3-1.3-1.1-1.3-2c0-1.2,0.9-2.2,2-2.2s2,1,2,2.2c0,0.9-0.5,1.7-1.3,2v0.7h4.8V283.6z M-344.9,298.6c-0.4,0.6-0.8,1-1.2,1.3
	c-0.5,0.3-1,0.4-1.7,0.4c-1.1,0-2-0.5-2.8-1.4c-0.8-0.9-1.1-2.2-1.1-3.6c0-1.7,0.4-3.1,1.1-4c0.7-1,1.7-1.5,3-1.5
	c0.6,0,1.1,0.1,1.5,0.4c0.4,0.3,0.8,0.6,1.1,1.1h0v-4.8h2.5V300h-2.4V298.6z M-345.8,292.5c-0.4-0.3-0.8-0.5-1.3-0.5
	c-0.7,0-1.3,0.3-1.6,0.9c-0.3,0.6-0.5,1.3-0.5,2.2c0,0.9,0.2,1.7,0.5,2.2c0.3,0.6,0.9,0.8,1.6,0.8s1.2-0.3,1.6-0.8s0.5-1.3,0.5-2.1
	C-345,293.9-345.2,293-345.8,292.5z M-356.3,297.2h-4.7l-0.9,2.8h-2.8l4.6-13.5h3l4.5,13.5h-2.9L-356.3,297.2z M-358.6,289.5
	l-1.7,5.3h3.3L-358.6,289.5z"/>
</svg>
