<?xml version="1.0" encoding="utf-8"?>
<!-- Generator: Adobe Illustrator 19.0.0, SVG Export Plug-In . SVG Version: 6.00 Build 0)  -->
<svg version="1.1" id="Layer_1" xmlns="http://www.w3.org/2000/svg" xmlns:xlink="http://www.w3.org/1999/xlink" x="0px" y="0px"
	 viewBox="-373 286 44 41" style="enable-background:new -373 286 44 41;" xml:space="preserve">
<style type="text/css">
	.st0{fill:#FF6C00;}
</style>
<path id="path-1" class="st0" d="M-338.2,326.4h-26c-4.3,0-7.8-3.4-7.8-7.6v-25.2c0-4.2,3.5-7.6,7.8-7.6h26c4.3,0,7.8,3.4,7.8,7.6
	v25.2C-330.4,323-333.9,326.4-338.2,326.4z M-335.6,293.6c0-1.4-1.2-2.5-2.6-2.5h-26c-1.4,0-2.6,1.1-2.6,2.5v25.2
	c0,1.4,1.2,2.5,2.6,2.5h26c1.4,0,2.6-1.1,2.6-2.5V293.6z M-340.8,308.7v2.5c0,4.2-3.5,7.6-7.8,7.6v-5c1.4,0,2.6-1.1,2.6-2.5v-2.5
	c1.4,0,2.6-1.1,2.6-2.5c0-1.4-1.2-2.5-2.6-2.5v-2.5c0-1.4-1.2-2.5-2.6-2.5v-5c4.3,0,7.8,3.4,7.8,7.6v2.5c1.4,0,2.6,1.1,2.6,2.5
	C-338.2,307.6-339.4,308.7-340.8,308.7z M-361.6,311.2v-2.5c-1.4,0-2.6-1.1-2.6-2.5c0-1.4,1.2-2.5,2.6-2.5v-2.5
	c0-4.2,3.5-7.6,7.8-7.6v5c-1.4,0-2.6,1.1-2.6,2.5v2.5c-1.4,0-2.6,1.1-2.6,2.5c0,1.4,1.2,2.5,2.6,2.5v2.5c0,1.4,1.2,2.5,2.6,2.5v5
	C-358.1,318.8-361.6,315.4-361.6,311.2z"/>
</svg>
