<?xml version="1.0" encoding="utf-8"?>
<!-- Generator: Adobe Illustrator 19.0.0, SVG Export Plug-In . SVG Version: 6.00 Build 0)  -->
<svg version="1.1" id="Layer_1" xmlns="http://www.w3.org/2000/svg" xmlns:xlink="http://www.w3.org/1999/xlink" x="0px" y="0px"
	 viewBox="-370 282 51 50" style="enable-background:new -370 282 51 50;" xml:space="preserve">
<style type="text/css">
	.st0{fill:#FF6C00;}
</style>
<path id="path-1" class="st0" d="M-324.7,327.7h-39.6c-1.1,0-2.1-0.9-2.1-2.1v-37.6c0-1.1,0.9-2.1,2.1-2.1h39.6
	c1.1,0,2.1,0.9,2.1,2.1v37.6C-322.6,326.8-323.5,327.7-324.7,327.7z M-326.7,290.1h-35.5v33.5h35.5V290.1z M-346.9,299.2h-6.2v16.7
	h6.2v4.2h-10.4v-25h10.4V299.2z M-334.4,297.1h2.1V318h-2.1v2.1h-8.3v-25h8.3V297.1z M-336.5,299.2h-2.1v16.7h2.1V299.2z"/>
</svg>
