<?xml version="1.0" encoding="utf-8"?>
<!-- Generator: Adobe Illustrator 19.0.0, SVG Export Plug-In . SVG Version: 6.00 Build 0)  -->
<svg version="1.1" id="Layer_1" xmlns="http://www.w3.org/2000/svg" xmlns:xlink="http://www.w3.org/1999/xlink" x="0px" y="0px"
	 viewBox="-375 283 40 47" style="enable-background:new -375 283 40 47;" xml:space="preserve">
<style type="text/css">
	.st0{fill:#FF6C00;}
</style>
<path id="path-1" class="st0" d="M-340,309.3c-0.8,4.6-3.3,8.6-6.8,11.3v3.3c0,3.2-2.5,5.8-5.7,5.8h-8.5c-3.1,0-5.7-2.6-5.7-5.8
	v-3.3c-4.3-3.2-7.1-8.3-7.1-14.2c0-5.8,2.8-11,7.1-14.2v-3.3c0-3.2,2.5-5.8,5.7-5.8h8.5c3.1,0,5.7,2.6,5.7,5.8v3.3
	c3.5,2.6,6,6.6,6.8,11.3h3.2v5.8H-340z M-356.7,291.8c-7.8,0-14.1,6.5-14.1,14.6c0,8.1,6.3,14.6,14.1,14.6s14.1-6.5,14.1-14.6
	C-342.6,298.3-348.9,291.8-356.7,291.8z M-353.4,307.1c2.7,2.9,6.3,7,6.3,7s-4.3-2.8-7.6-4.9C-354,308.7-353.5,307.9-353.4,307.1z
	 M-356.8,309.3c-1,0-1.8-0.5-2.3-1.3c-0.1-0.1-0.1-0.2-0.2-0.2c-0.1-0.1-0.1-0.3-0.2-0.4c-0.1-0.3-0.2-0.6-0.2-1
	c0-1.6,1.3-2.9,2.8-2.9c0.3,0,0.6,0.1,0.9,0.2c0.3,0.1,0.5,0.2,0.7,0.4l0,0l0,0c0.7,0.5,1.2,1.4,1.2,2.4
	C-354,308-355.3,309.3-356.8,309.3z M-357.9,302.2c0.4-3.9,1-9,1-9s0.7,5.1,1.2,9c-0.4-0.2-0.8-0.3-1.2-0.3
	C-357.2,302-357.5,302.1-357.9,302.2z"/>
</svg>
