<?xml version="1.0" encoding="utf-8"?>
<!-- Generator: Adobe Illustrator 19.0.1, SVG Export Plug-In . SVG Version: 6.00 Build 0)  -->
<svg version="1.1" id="Layer_1" xmlns="http://www.w3.org/2000/svg" xmlns:xlink="http://www.w3.org/1999/xlink" x="0px" y="0px"
	 viewBox="-372 286 46 42" style="enable-background:new -372 286 46 42;" xml:space="preserve">
<style type="text/css">
	.st0{fill:#FF6C00;}
</style>
<path class="st0" d="M-329.3,327.8h-39.4c-1.1,0-2.1-0.9-2.1-2.1v-37.4c0-1.1,0.9-2.1,2.1-2.1h39.4c1.1,0,2.1,0.9,2.1,2.1v37.4
	C-327.2,326.9-328.1,327.8-329.3,327.8z M-331.3,290.4h-35.3v33.4h35.3V290.4z M-338.4,296.8h2.1v20.8h-2.1v2.1h-8.3v-24.9h8.3
	V296.8L-338.4,296.8z M-340.5,298.9h-2.1v16.6h2.1V298.9z M-361.1,319.5V295h10.2v4.1h-6.1v16.4h2v-10.2h4.1v14.3L-361.1,319.5
	L-361.1,319.5z"/>
</svg>
