<?xml version="1.0" encoding="utf-8"?>
<!-- Generator: Adobe Illustrator 19.0.0, SVG Export Plug-In . SVG Version: 6.00 Build 0)  -->
<svg version="1.1" id="Layer_1" xmlns="http://www.w3.org/2000/svg" xmlns:xlink="http://www.w3.org/1999/xlink" x="0px" y="0px"
	 viewBox="-372 285 46 44" style="enable-background:new -372 285 46 44;" xml:space="preserve">
<style type="text/css">
	.st0{fill:#FF6C00;}
</style>
<path id="path-1" class="st0" d="M-349.1,328.8c-12.1,0-21.9-9.8-21.9-21.9c0-12.1,9.8-21.9,21.9-21.9c12.1,0,21.9,9.8,21.9,21.9
	C-327.2,319-337,328.8-349.1,328.8z M-349.2,290.5c-9,0-16.2,7.4-16.2,16.4c0,9.1,7.3,16.4,16.2,16.4c9,0,16.2-7.4,16.2-16.4
	C-333,297.8-340.3,290.5-349.2,290.5z M-349,317.7c-6,0-10.9-4.9-10.9-10.9c0,0,0-0.1,0-0.1h3.8c0,0,0,0.1,0,0.1
	c0,3.9,3.2,7.1,7.1,7.1c3.9,0,7.1-3.2,7.1-7.1c0,0,0-0.1,0-0.1h3.8c0,0,0,0.1,0,0.1C-338.1,312.8-343,317.7-349,317.7z M-344,302
	c-1.7,0-3-1.4-3-3c0-1.7,1.3-3,3-3c1.7,0,3,1.4,3,3C-340.9,300.6-342.3,302-344,302z M-354.2,302c-1.7,0-3-1.4-3-3c0-1.7,1.3-3,3-3
	c1.7,0,3,1.4,3,3C-351.2,300.6-352.5,302-354.2,302z"/>
</svg>
